<svg width="219" height="219" viewBox="0 0 219 219" fill="none" xmlns="http://www.w3.org/2000/svg">
<circle cx="109.5" cy="109.5" r="108" fill="#90A5A9" stroke="white" stroke-width="3"/>
<path d="M8.91406 126V106.957H13.3574V109.166C13.5605 108.387 13.9076 107.791 14.3984 107.376C14.8893 106.961 15.6087 106.754 16.5566 106.754C17.3184 106.754 17.9658 106.932 18.499 107.287C19.0407 107.634 19.4215 108.095 19.6416 108.671C19.9886 108.045 20.3949 107.571 20.8604 107.249C21.3343 106.919 22.0072 106.754 22.8789 106.754C23.9368 106.754 24.7493 106.982 25.3164 107.439C25.8919 107.888 26.2897 108.514 26.5098 109.318C26.7383 110.114 26.8525 111.036 26.8525 112.086V126H22.3203V112.01C22.3203 110.783 22.0072 110.169 21.3809 110.169C21.0508 110.169 20.7969 110.283 20.6191 110.512C20.4414 110.732 20.3187 111.007 20.251 111.337C20.1833 111.667 20.1494 111.997 20.1494 112.327V126H15.6172V112.01C15.6172 111.612 15.5664 111.214 15.4648 110.816C15.3717 110.419 15.1263 110.22 14.7285 110.22C14.39 110.22 14.1276 110.342 13.9414 110.588C13.7552 110.833 13.6283 111.138 13.5605 111.502C13.4928 111.857 13.459 112.209 13.459 112.556V126H8.91406ZM28.6172 105.789V102.006H33.1621V105.789H28.6172ZM28.6172 126V106.957H33.1621V126H28.6172ZM34.9648 126V103.656H39.5859V126H34.9648ZM46.7461 126.203C45.3919 126.203 44.3128 125.949 43.5088 125.441C42.7048 124.934 42.1292 124.201 41.7822 123.245C41.4352 122.289 41.2617 121.138 41.2617 119.792V112.137C41.2617 110.368 41.7695 109.031 42.7852 108.125C43.8008 107.211 45.1973 106.754 46.9746 106.754C50.6309 106.754 52.459 108.548 52.459 112.137V113.521C52.459 115.196 52.4421 116.322 52.4082 116.897H45.8066V120.579C45.8066 120.918 45.8278 121.252 45.8701 121.582C45.9124 121.904 46.0055 122.17 46.1494 122.382C46.3018 122.593 46.543 122.699 46.873 122.699C47.347 122.699 47.6432 122.496 47.7617 122.09C47.8802 121.675 47.9395 121.138 47.9395 120.478V118.649H52.459V119.729C52.459 121.15 52.2812 122.344 51.9258 123.309C51.5788 124.265 50.9863 124.989 50.1484 125.479C49.319 125.962 48.1849 126.203 46.7461 126.203ZM45.7812 114.638H47.9395V112.073C47.9395 111.388 47.8548 110.897 47.6855 110.601C47.5163 110.296 47.2624 110.144 46.9238 110.144C46.5599 110.144 46.2764 110.287 46.0732 110.575C45.8786 110.863 45.7812 111.362 45.7812 112.073V114.638ZM59.3271 126.203C55.5693 126.203 53.6904 124.299 53.6904 120.49V118.979H58.2607V121.214C58.2607 121.646 58.3454 121.984 58.5146 122.229C58.6839 122.475 58.9548 122.598 59.3271 122.598C59.9873 122.598 60.3174 122.103 60.3174 121.112C60.3174 120.283 60.1439 119.665 59.7969 119.259C59.4499 118.844 59.0267 118.446 58.5273 118.065L56.1025 116.199C55.3408 115.607 54.7611 114.98 54.3633 114.32C53.9655 113.66 53.7666 112.742 53.7666 111.565C53.7666 110.474 54.0247 109.572 54.541 108.861C55.0658 108.15 55.7555 107.621 56.6104 107.274C57.4736 106.927 58.4046 106.754 59.4033 106.754C63.0934 106.754 64.9385 108.595 64.9385 112.276V112.632H60.2412V111.908C60.2412 111.527 60.1735 111.159 60.0381 110.804C59.9111 110.448 59.6572 110.271 59.2764 110.271C58.6331 110.271 58.3115 110.609 58.3115 111.286C58.3115 111.972 58.5824 112.509 59.124 112.898L61.9424 114.955C62.8226 115.59 63.5589 116.343 64.1514 117.215C64.7523 118.087 65.0527 119.246 65.0527 120.693C65.0527 122.488 64.5407 123.854 63.5166 124.794C62.501 125.733 61.1045 126.203 59.3271 126.203ZM76.0088 126.203C74.9508 126.203 74.1426 125.958 73.584 125.467C73.0339 124.976 72.6572 124.303 72.4541 123.448C72.251 122.593 72.1494 121.624 72.1494 120.541C72.1494 119.382 72.2637 118.434 72.4922 117.697C72.7207 116.952 73.11 116.343 73.6602 115.869C74.2188 115.395 74.9847 114.993 75.958 114.663L78.7764 113.698V111.743C78.7764 110.719 78.4421 110.207 77.7734 110.207C77.1641 110.207 76.8594 110.622 76.8594 111.451V112.594H72.4414C72.4329 112.526 72.4287 112.441 72.4287 112.34C72.4287 112.23 72.4287 112.107 72.4287 111.972C72.4287 110.076 72.873 108.734 73.7617 107.947C74.6589 107.152 76.0765 106.754 78.0146 106.754C79.0303 106.754 79.9401 106.936 80.7441 107.3C81.5482 107.655 82.1829 108.184 82.6484 108.887C83.1224 109.589 83.3594 110.457 83.3594 111.489V126H78.8398V123.74C78.6198 124.536 78.2559 125.145 77.748 125.568C77.2402 125.992 76.6605 126.203 76.0088 126.203ZM77.7988 122.674C78.1712 122.674 78.4251 122.517 78.5605 122.204C78.696 121.891 78.7637 121.552 78.7637 121.188V115.882C78.1374 116.136 77.6507 116.457 77.3037 116.847C76.9567 117.228 76.7832 117.79 76.7832 118.535V120.985C76.7832 122.111 77.1217 122.674 77.7988 122.674ZM87.1045 126L84.8066 106.957H88.7041L89.9609 117.189L91.0654 106.957H95.4199L96.7275 117.189L97.7812 106.957H101.691L99.3682 126H94.582L93.2109 115.196L92.0176 126H87.1045ZM106.681 126.203C105.623 126.203 104.814 125.958 104.256 125.467C103.706 124.976 103.329 124.303 103.126 123.448C102.923 122.593 102.821 121.624 102.821 120.541C102.821 119.382 102.936 118.434 103.164 117.697C103.393 116.952 103.782 116.343 104.332 115.869C104.891 115.395 105.657 114.993 106.63 114.663L109.448 113.698V111.743C109.448 110.719 109.114 110.207 108.445 110.207C107.836 110.207 107.531 110.622 107.531 111.451V112.594H103.113C103.105 112.526 103.101 112.441 103.101 112.34C103.101 112.23 103.101 112.107 103.101 111.972C103.101 110.076 103.545 108.734 104.434 107.947C105.331 107.152 106.748 106.754 108.687 106.754C109.702 106.754 110.612 106.936 111.416 107.3C112.22 107.655 112.855 108.184 113.32 108.887C113.794 109.589 114.031 110.457 114.031 111.489V126H109.512V123.74C109.292 124.536 108.928 125.145 108.42 125.568C107.912 125.992 107.332 126.203 106.681 126.203ZM108.471 122.674C108.843 122.674 109.097 122.517 109.232 122.204C109.368 121.891 109.436 121.552 109.436 121.188V115.882C108.809 116.136 108.323 116.457 107.976 116.847C107.629 117.228 107.455 117.79 107.455 118.535V120.985C107.455 122.111 107.794 122.674 108.471 122.674ZM115.415 129.174V126.292H117.599C117.929 126.292 118.094 126.178 118.094 125.949C118.094 125.831 118.081 125.708 118.056 125.581L115.072 106.957H119.427L120.696 120.973L122.194 106.957H126.574L123.045 126.99C122.918 127.71 122.673 128.251 122.309 128.615C121.953 128.988 121.365 129.174 120.544 129.174H115.415Z" fill="white"/>
<line x1="136.5" y1="77" x2="136.5" y2="152" stroke="white" stroke-width="3"/>
<path d="M148.969 99.125C148.214 99.125 147.703 98.9661 147.438 98.6484C147.177 98.3255 147.047 97.8333 147.047 97.1719V89.8672H146.258V87.7344H147.047V85.25H149.766V87.7344H150.555V89.8672H149.766V96.5156C149.766 96.7083 149.797 96.8438 149.859 96.9219C149.922 97 150.042 97.0391 150.219 97.0391C150.344 97.0391 150.456 97.0286 150.555 97.0078V98.9141C150.492 98.9349 150.297 98.974 149.969 99.0312C149.641 99.0938 149.307 99.125 148.969 99.125ZM151.453 99V85.25H154.328V88.4453C154.479 88.0078 154.711 87.6849 155.023 87.4766C155.336 87.263 155.701 87.1562 156.117 87.1562C156.93 87.1562 157.521 87.4115 157.891 87.9219C158.26 88.4323 158.445 89.1172 158.445 89.9766V99H155.617V90.1562C155.617 89.901 155.562 89.6927 155.453 89.5312C155.349 89.3698 155.182 89.2891 154.953 89.2891C154.76 89.2891 154.607 89.3724 154.492 89.5391C154.383 89.7057 154.328 89.9036 154.328 90.1328V99H151.453ZM162.828 99.125C161.995 99.125 161.331 98.9688 160.836 98.6562C160.341 98.3438 159.987 97.8932 159.773 97.3047C159.56 96.7161 159.453 96.0078 159.453 95.1797V90.4688C159.453 89.3802 159.766 88.5573 160.391 88C161.016 87.4375 161.875 87.1562 162.969 87.1562C165.219 87.1562 166.344 88.2604 166.344 90.4688V91.3203C166.344 92.3516 166.333 93.0443 166.312 93.3984H162.25V95.6641C162.25 95.8724 162.263 96.0781 162.289 96.2812C162.315 96.4792 162.372 96.6432 162.461 96.7734C162.555 96.9036 162.703 96.9688 162.906 96.9688C163.198 96.9688 163.38 96.8438 163.453 96.5938C163.526 96.3385 163.562 96.0078 163.562 95.6016V94.4766H166.344V95.1406C166.344 96.0156 166.234 96.75 166.016 97.3438C165.802 97.9323 165.438 98.3776 164.922 98.6797C164.411 98.9766 163.714 99.125 162.828 99.125ZM162.234 92.0078H163.562V90.4297C163.562 90.0078 163.51 89.7057 163.406 89.5234C163.302 89.3359 163.146 89.2422 162.938 89.2422C162.714 89.2422 162.539 89.3307 162.414 89.5078C162.294 89.6849 162.234 89.9922 162.234 90.4297V92.0078ZM148.969 123.125C148.214 123.125 147.703 122.966 147.438 122.648C147.177 122.326 147.047 121.833 147.047 121.172V113.867H146.258V111.734H147.047V109.25H149.766V111.734H150.555V113.867H149.766V120.516C149.766 120.708 149.797 120.844 149.859 120.922C149.922 121 150.042 121.039 150.219 121.039C150.344 121.039 150.456 121.029 150.555 121.008V122.914C150.492 122.935 150.297 122.974 149.969 123.031C149.641 123.094 149.307 123.125 148.969 123.125ZM151.453 123V111.281H154.297V112.586C154.432 112.133 154.672 111.779 155.016 111.523C155.359 111.268 155.792 111.141 156.312 111.141V113.477C156.083 113.477 155.81 113.503 155.492 113.555C155.174 113.602 154.896 113.669 154.656 113.758C154.417 113.841 154.297 113.935 154.297 114.039V123H151.453ZM159.133 123.125C158.482 123.125 157.984 122.974 157.641 122.672C157.302 122.37 157.07 121.956 156.945 121.43C156.82 120.904 156.758 120.307 156.758 119.641C156.758 118.927 156.828 118.344 156.969 117.891C157.109 117.432 157.349 117.057 157.688 116.766C158.031 116.474 158.503 116.227 159.102 116.023L160.836 115.43V114.227C160.836 113.596 160.63 113.281 160.219 113.281C159.844 113.281 159.656 113.536 159.656 114.047V114.75H156.938C156.932 114.708 156.93 114.656 156.93 114.594C156.93 114.526 156.93 114.451 156.93 114.367C156.93 113.201 157.203 112.375 157.75 111.891C158.302 111.401 159.174 111.156 160.367 111.156C160.992 111.156 161.552 111.268 162.047 111.492C162.542 111.711 162.932 112.036 163.219 112.469C163.51 112.901 163.656 113.435 163.656 114.07V123H160.875V121.609C160.74 122.099 160.516 122.474 160.203 122.734C159.891 122.995 159.534 123.125 159.133 123.125ZM160.234 120.953C160.464 120.953 160.62 120.857 160.703 120.664C160.786 120.471 160.828 120.263 160.828 120.039V116.773C160.443 116.93 160.143 117.128 159.93 117.367C159.716 117.602 159.609 117.948 159.609 118.406V119.914C159.609 120.607 159.818 120.953 160.234 120.953ZM166.227 123L164.344 111.281H167.148L167.82 119.109L168.578 111.281H171.375L169.461 123H166.227ZM175.391 123.125C174.557 123.125 173.893 122.969 173.398 122.656C172.904 122.344 172.549 121.893 172.336 121.305C172.122 120.716 172.016 120.008 172.016 119.18V114.469C172.016 113.38 172.328 112.557 172.953 112C173.578 111.438 174.438 111.156 175.531 111.156C177.781 111.156 178.906 112.26 178.906 114.469V115.32C178.906 116.352 178.896 117.044 178.875 117.398H174.812V119.664C174.812 119.872 174.826 120.078 174.852 120.281C174.878 120.479 174.935 120.643 175.023 120.773C175.117 120.904 175.266 120.969 175.469 120.969C175.76 120.969 175.943 120.844 176.016 120.594C176.089 120.339 176.125 120.008 176.125 119.602V118.477H178.906V119.141C178.906 120.016 178.797 120.75 178.578 121.344C178.365 121.932 178 122.378 177.484 122.68C176.974 122.977 176.276 123.125 175.391 123.125ZM174.797 116.008H176.125V114.43C176.125 114.008 176.073 113.706 175.969 113.523C175.865 113.336 175.708 113.242 175.5 113.242C175.276 113.242 175.102 113.331 174.977 113.508C174.857 113.685 174.797 113.992 174.797 114.43V116.008ZM179.922 123V109.25H182.766V123H179.922ZM183.891 123V109.25H186.734V123H183.891ZM191.141 123.125C190.307 123.125 189.643 122.969 189.148 122.656C188.654 122.344 188.299 121.893 188.086 121.305C187.872 120.716 187.766 120.008 187.766 119.18V114.469C187.766 113.38 188.078 112.557 188.703 112C189.328 111.438 190.188 111.156 191.281 111.156C193.531 111.156 194.656 112.26 194.656 114.469V115.32C194.656 116.352 194.646 117.044 194.625 117.398H190.562V119.664C190.562 119.872 190.576 120.078 190.602 120.281C190.628 120.479 190.685 120.643 190.773 120.773C190.867 120.904 191.016 120.969 191.219 120.969C191.51 120.969 191.693 120.844 191.766 120.594C191.839 120.339 191.875 120.008 191.875 119.602V118.477H194.656V119.141C194.656 120.016 194.547 120.75 194.328 121.344C194.115 121.932 193.75 122.378 193.234 122.68C192.724 122.977 192.026 123.125 191.141 123.125ZM190.547 116.008H191.875V114.43C191.875 114.008 191.823 113.706 191.719 113.523C191.615 113.336 191.458 113.242 191.25 113.242C191.026 113.242 190.852 113.331 190.727 113.508C190.607 113.685 190.547 113.992 190.547 114.43V116.008ZM195.672 123V111.281H198.516V112.586C198.651 112.133 198.891 111.779 199.234 111.523C199.578 111.268 200.01 111.141 200.531 111.141V113.477C200.302 113.477 200.029 113.503 199.711 113.555C199.393 113.602 199.115 113.669 198.875 113.758C198.635 113.841 198.516 113.935 198.516 114.039V123H195.672ZM204.43 123.125C202.117 123.125 200.961 121.953 200.961 119.609V118.68H203.773V120.055C203.773 120.32 203.826 120.529 203.93 120.68C204.034 120.831 204.201 120.906 204.43 120.906C204.836 120.906 205.039 120.602 205.039 119.992C205.039 119.482 204.932 119.102 204.719 118.852C204.505 118.596 204.245 118.352 203.938 118.117L202.445 116.969C201.977 116.604 201.62 116.219 201.375 115.812C201.13 115.406 201.008 114.841 201.008 114.117C201.008 113.445 201.167 112.891 201.484 112.453C201.807 112.016 202.232 111.69 202.758 111.477C203.289 111.263 203.862 111.156 204.477 111.156C206.747 111.156 207.883 112.289 207.883 114.555V114.773H204.992V114.328C204.992 114.094 204.951 113.867 204.867 113.648C204.789 113.43 204.633 113.32 204.398 113.32C204.003 113.32 203.805 113.529 203.805 113.945C203.805 114.367 203.971 114.698 204.305 114.938L206.039 116.203C206.581 116.594 207.034 117.057 207.398 117.594C207.768 118.13 207.953 118.844 207.953 119.734C207.953 120.839 207.638 121.68 207.008 122.258C206.383 122.836 205.523 123.125 204.43 123.125ZM146.562 147V133.25H149.406V147H146.562ZM153.938 147.125C151.604 147.125 150.438 145.914 150.438 143.492V138.789C150.438 137.685 150.747 136.805 151.367 136.148C151.987 135.487 152.844 135.156 153.938 135.156C155.036 135.156 155.896 135.487 156.516 136.148C157.135 136.805 157.445 137.685 157.445 138.789V143.492C157.445 145.914 156.276 147.125 153.938 147.125ZM153.938 144.969C154.172 144.969 154.339 144.885 154.438 144.719C154.542 144.547 154.594 144.331 154.594 144.07V138.344C154.594 137.661 154.375 137.32 153.938 137.32C153.5 137.32 153.281 137.661 153.281 138.344V144.07C153.281 144.331 153.331 144.547 153.43 144.719C153.534 144.885 153.703 144.969 153.938 144.969ZM161.641 149.031C161.099 149.031 160.633 149.003 160.242 148.945C159.857 148.893 159.51 148.797 159.203 148.656C158.896 148.516 158.589 148.318 158.281 148.062L159.227 146.445C159.909 146.852 160.591 147.055 161.273 147.055C161.721 147.055 162.055 146.911 162.273 146.625C162.492 146.339 162.602 145.966 162.602 145.508V144.359C162.378 145.161 161.781 145.562 160.812 145.562C160.255 145.562 159.805 145.43 159.461 145.164C159.117 144.898 158.867 144.539 158.711 144.086C158.555 143.633 158.477 143.128 158.477 142.57V138.359C158.477 137.729 158.544 137.174 158.68 136.695C158.815 136.211 159.052 135.833 159.391 135.562C159.729 135.292 160.203 135.156 160.812 135.156C161.328 135.156 161.729 135.286 162.016 135.547C162.307 135.807 162.503 136.159 162.602 136.602V135.281H165.453V145.328C165.453 146.656 165.146 147.604 164.531 148.172C163.922 148.745 162.958 149.031 161.641 149.031ZM161.945 143.453C162.383 143.453 162.602 143.057 162.602 142.266V138.281C162.602 138.068 162.539 137.849 162.414 137.625C162.294 137.401 162.128 137.289 161.914 137.289C161.643 137.289 161.474 137.391 161.406 137.594C161.339 137.792 161.305 138.021 161.305 138.281V142.266C161.305 142.547 161.339 142.815 161.406 143.07C161.479 143.326 161.659 143.453 161.945 143.453Z" fill="white"/>
</svg>
