<svg width="89" height="89" viewBox="0 0 89 89" fill="none" xmlns="http://www.w3.org/2000/svg">
<circle cx="44.5" cy="44.5" r="44.5" fill="#90A5A9"/>
<path d="M55.656 26.432C55.656 32.2374 50.8852 36.944 45 36.944C39.1148 36.944 34.344 32.2373 34.344 26.432C34.344 20.6262 39.1148 15.92 45 15.92C50.8852 15.92 55.656 20.6263 55.656 26.432Z" fill="black"/>
<path d="M64.5011 61.3343C64.5011 50.7097 55.7698 42.0968 45 42.0968C34.2303 42.0968 25.4989 50.7101 25.4989 61.3343C25.4989 61.3812 25.5055 61.4268 25.5059 61.4728V68.4803H64.5007V61.4736H64.4937C64.4941 61.4267 64.5007 61.3819 64.5007 61.3343L64.5011 61.3343Z" fill="black"/>
</svg>
