<?xml version="1.0" encoding="UTF-8"?>
<svg width="700pt" height="700pt" version="1.1" viewBox="0 0 700 700" xmlns="http://www.w3.org/2000/svg" xmlns:xlink="http://www.w3.org/1999/xlink">
 <defs>
  <symbol id="w" overflow="visible">
   <path d="m3.6562-0.21875c-0.1875 0.09375-0.38672 0.16797-0.59375 0.21875-0.19922 0.050781-0.40625 0.078125-0.625 0.078125-0.66797 0-1.1992-0.17969-1.5938-0.54688-0.38672-0.375-0.57812-0.87891-0.57812-1.5156 0-0.64453 0.19141-1.1484 0.57812-1.5156 0.39453-0.375 0.92578-0.5625 1.5938-0.5625 0.21875 0 0.42578 0.027344 0.625 0.078125 0.20703 0.054687 0.40625 0.125 0.59375 0.21875v0.82812c-0.1875-0.125-0.375-0.21875-0.5625-0.28125-0.17969-0.0625-0.37109-0.09375-0.57812-0.09375-0.36719 0-0.65625 0.12109-0.875 0.35938-0.21094 0.23047-0.3125 0.55469-0.3125 0.96875 0 0.40625 0.10156 0.73047 0.3125 0.96875 0.21875 0.23047 0.50781 0.34375 0.875 0.34375 0.20703 0 0.39844-0.023437 0.57812-0.078125 0.1875-0.0625 0.375-0.16016 0.5625-0.29688z"/>
  </symbol>
  <symbol id="d" overflow="visible">
   <path d="m2.6875-2.1719c-0.085938-0.039063-0.16797-0.070313-0.25-0.09375-0.085938-0.019531-0.16797-0.03125-0.25-0.03125-0.25 0-0.44531 0.085937-0.57812 0.25-0.125 0.15625-0.1875 0.38281-0.1875 0.67188v1.375h-0.96875v-2.9844h0.96875v0.48438c0.11328-0.19531 0.25-0.33594 0.40625-0.42188 0.16406-0.09375 0.35938-0.14062 0.57812-0.14062h0.10938c0.039063 0 0.09375 0.007812 0.15625 0.015625z"/>
  </symbol>
  <symbol id="a" overflow="visible">
   <path d="m3.4375-1.5v0.26562h-2.2344c0.03125 0.23047 0.11328 0.40234 0.25 0.51562 0.13281 0.10547 0.32812 0.15625 0.57812 0.15625 0.20703 0 0.41406-0.023438 0.625-0.078125 0.20703-0.0625 0.42188-0.15625 0.64062-0.28125v0.73438c-0.21875 0.09375-0.44531 0.16406-0.67188 0.20312-0.23047 0.039062-0.45312 0.0625-0.67188 0.0625-0.54297 0-0.96484-0.13281-1.2656-0.40625-0.30469-0.28125-0.45312-0.67188-0.45312-1.1719 0-0.47656 0.14453-0.85938 0.4375-1.1406 0.30078-0.28125 0.70703-0.42188 1.2188-0.42188 0.46875 0 0.84375 0.14062 1.125 0.42188s0.42188 0.66406 0.42188 1.1406zm-0.96875-0.32812c0-0.17578-0.058594-0.31641-0.17188-0.42188-0.10547-0.11328-0.24219-0.17188-0.40625-0.17188-0.1875 0-0.33984 0.054687-0.45312 0.15625-0.11719 0.10547-0.1875 0.25-0.21875 0.4375z"/>
  </symbol>
  <symbol id="k" overflow="visible">
   <path d="m1.7969-1.3438c-0.19922 0-0.35156 0.039062-0.45312 0.10938-0.09375 0.0625-0.14062 0.16406-0.14062 0.29688 0 0.11719 0.035156 0.21094 0.10938 0.28125 0.082031 0.0625 0.19531 0.09375 0.34375 0.09375 0.17578 0 0.32812-0.0625 0.45312-0.1875s0.1875-0.28516 0.1875-0.48438v-0.10938zm1.4688-0.35938v1.7031h-0.96875v-0.4375c-0.125 0.17969-0.27344 0.30859-0.4375 0.39062-0.15625 0.082031-0.35156 0.125-0.57812 0.125-0.3125 0-0.57031-0.085938-0.76562-0.26562-0.1875-0.1875-0.28125-0.42188-0.28125-0.70312 0-0.35156 0.11719-0.61328 0.35938-0.78125 0.23828-0.16406 0.61719-0.25 1.1406-0.25h0.5625v-0.0625c0-0.15625-0.0625-0.26562-0.1875-0.32812-0.11719-0.070312-0.29688-0.10938-0.54688-0.10938-0.21094 0-0.40234 0.023437-0.57812 0.0625-0.17969 0.042969-0.33984 0.10156-0.48438 0.17188v-0.71875c0.19531-0.050781 0.39844-0.085938 0.60938-0.10938 0.20703-0.03125 0.41406-0.046875 0.625-0.046875 0.53906 0 0.92969 0.10938 1.1719 0.32812 0.23828 0.21094 0.35938 0.55469 0.35938 1.0312z"/>
  </symbol>
  <symbol id="c" overflow="visible">
   <path d="m1.5-3.8438v0.85938h0.98438v0.67188h-0.98438v1.2812c0 0.13672 0.023438 0.23047 0.078125 0.28125 0.0625 0.042969 0.17578 0.0625 0.34375 0.0625h0.48438v0.6875h-0.8125c-0.38672 0-0.65625-0.078125-0.8125-0.23438s-0.23438-0.42188-0.23438-0.79688v-1.2812h-0.46875v-0.67188h0.46875v-0.85938z"/>
  </symbol>
  <symbol id="j" overflow="visible">
   <path d="m2.5-2.5469v-1.6094h0.95312v4.1562h-0.95312v-0.4375c-0.13672 0.17969-0.28125 0.30859-0.4375 0.39062-0.15625 0.082031-0.33984 0.125-0.54688 0.125-0.375 0-0.68359-0.14453-0.92188-0.4375-0.23047-0.28906-0.34375-0.67188-0.34375-1.1406 0-0.45703 0.11328-0.83203 0.34375-1.125 0.23828-0.28906 0.54688-0.4375 0.92188-0.4375 0.19531 0 0.375 0.042969 0.53125 0.125 0.16406 0.085938 0.31641 0.21484 0.45312 0.39062zm-0.64062 1.9375c0.20703 0 0.36328-0.070313 0.46875-0.21875 0.11328-0.15625 0.17188-0.37891 0.17188-0.67188 0-0.28125-0.058594-0.49219-0.17188-0.64062-0.10547-0.15625-0.26172-0.23438-0.46875-0.23438-0.19922 0-0.35547 0.078125-0.46875 0.23438-0.10547 0.14844-0.15625 0.35938-0.15625 0.64062 0 0.29297 0.050781 0.51562 0.15625 0.67188 0.11328 0.14844 0.26953 0.21875 0.46875 0.21875z"/>
  </symbol>
  <symbol id="i" overflow="visible">
   <path d="m2.0469-0.60938c0.20703 0 0.36328-0.070313 0.46875-0.21875 0.11328-0.15625 0.17188-0.37891 0.17188-0.67188 0-0.28125-0.058594-0.49219-0.17188-0.64062-0.10547-0.15625-0.26172-0.23438-0.46875-0.23438-0.19922 0-0.35547 0.078125-0.46875 0.23438-0.10547 0.14844-0.15625 0.35938-0.15625 0.64062 0 0.29297 0.050781 0.51562 0.15625 0.67188 0.11328 0.14844 0.26953 0.21875 0.46875 0.21875zm-0.625-1.9375c0.125-0.17578 0.26562-0.30469 0.42188-0.39062 0.16406-0.082031 0.35156-0.125 0.5625-0.125 0.36328 0 0.66406 0.14844 0.90625 0.4375 0.23828 0.29297 0.35938 0.66797 0.35938 1.125 0 0.46875-0.12109 0.85156-0.35938 1.1406-0.24219 0.29297-0.54297 0.4375-0.90625 0.4375-0.21094 0-0.39844-0.042969-0.5625-0.125-0.15625-0.082031-0.29688-0.21094-0.42188-0.39062v0.4375h-0.96875v-4.1562h0.96875z"/>
  </symbol>
  <symbol id="h" overflow="visible">
   <path d="m0.0625-2.9844h0.95312l0.8125 2.0156 0.6875-2.0156h0.95312l-1.2656 3.2656c-0.125 0.33203-0.27344 0.56641-0.4375 0.70312-0.16797 0.13281-0.39062 0.20312-0.67188 0.20312h-0.54688v-0.64062h0.29688c0.16406 0 0.28516-0.027344 0.35938-0.078125 0.070313-0.054688 0.12891-0.14062 0.17188-0.26562l0.03125-0.09375z"/>
  </symbol>
  <symbol id="g" overflow="visible">
   <path d="m0.5-3.9844h1.0312v3.9844h-1.0312z"/>
  </symbol>
  <symbol id="f" overflow="visible">
   <path d="m2.875-2.8906v0.76562c-0.125-0.082031-0.25781-0.14453-0.39062-0.1875-0.13672-0.039062-0.27344-0.0625-0.40625-0.0625-0.27344 0-0.48047 0.078125-0.625 0.23438-0.14844 0.15625-0.21875 0.37109-0.21875 0.64062 0 0.28125 0.070313 0.5 0.21875 0.65625 0.14453 0.15625 0.35156 0.23438 0.625 0.23438 0.14453 0 0.28516-0.019531 0.42188-0.0625 0.13281-0.039063 0.25781-0.10938 0.375-0.20312v0.78125c-0.14844 0.0625-0.29688 0.10156-0.45312 0.125-0.15625 0.03125-0.3125 0.046875-0.46875 0.046875-0.54297 0-0.96484-0.13281-1.2656-0.40625-0.30469-0.28125-0.45312-0.67188-0.45312-1.1719 0-0.48828 0.14844-0.86719 0.45312-1.1406 0.30078-0.28125 0.72266-0.42188 1.2656-0.42188 0.15625 0 0.3125 0.015625 0.46875 0.046875 0.15625 0.023437 0.30469 0.0625 0.45312 0.125z"/>
  </symbol>
  <symbol id="b" overflow="visible">
   <path d="m1.875-2.375c-0.21094 0-0.37109 0.078125-0.48438 0.23438-0.10547 0.14844-0.15625 0.35938-0.15625 0.64062 0 0.29297 0.050781 0.51562 0.15625 0.67188 0.11328 0.14844 0.27344 0.21875 0.48438 0.21875 0.20703 0 0.36719-0.070313 0.48438-0.21875 0.11328-0.15625 0.17188-0.37891 0.17188-0.67188 0-0.28125-0.058594-0.49219-0.17188-0.64062-0.11719-0.15625-0.27734-0.23438-0.48438-0.23438zm0-0.6875c0.51953 0 0.92188 0.14062 1.2031 0.42188 0.28906 0.27344 0.4375 0.65234 0.4375 1.1406 0 0.5-0.14844 0.89062-0.4375 1.1719-0.28125 0.27344-0.68359 0.40625-1.2031 0.40625-0.51172 0-0.91406-0.13281-1.2031-0.40625-0.29297-0.28125-0.4375-0.67188-0.4375-1.1719 0-0.48828 0.14453-0.86719 0.4375-1.1406 0.28906-0.28125 0.69141-0.42188 1.2031-0.42188z"/>
  </symbol>
  <symbol id="e" overflow="visible">
   <path d="m3.4688-1.8281v1.8281h-0.96875v-1.3906c0-0.25781-0.007812-0.4375-0.015625-0.53125-0.011719-0.10156-0.03125-0.17578-0.0625-0.21875-0.03125-0.0625-0.085937-0.10938-0.15625-0.14062-0.0625-0.039062-0.13281-0.0625-0.20312-0.0625-0.21094 0-0.37109 0.078125-0.48438 0.23438-0.10547 0.15625-0.15625 0.37109-0.15625 0.64062v1.4688h-0.96875v-2.9844h0.96875v0.4375c0.13281-0.17578 0.28516-0.30469 0.45312-0.39062 0.16406-0.082031 0.34375-0.125 0.53125-0.125 0.34375 0 0.60156 0.10938 0.78125 0.32812 0.1875 0.21094 0.28125 0.51172 0.28125 0.90625z"/>
  </symbol>
  <symbol id="v" overflow="visible">
   <path d="m2.5-0.5c-0.13672 0.16797-0.28125 0.29297-0.4375 0.375-0.15625 0.085938-0.33984 0.125-0.54688 0.125-0.36719 0-0.66797-0.14062-0.90625-0.42188-0.24219-0.28906-0.35938-0.66016-0.35938-1.1094 0-0.44531 0.11719-0.8125 0.35938-1.0938 0.23828-0.28906 0.53906-0.4375 0.90625-0.4375 0.20703 0 0.39062 0.042969 0.54688 0.125 0.15625 0.085938 0.30078 0.21484 0.4375 0.39062v-0.4375h0.95312v2.6875c0 0.47656-0.15234 0.84375-0.45312 1.0938-0.30469 0.25781-0.74609 0.39062-1.3281 0.39062-0.17969 0-0.35547-0.015625-0.53125-0.046875-0.17969-0.03125-0.35547-0.078125-0.53125-0.14062v-0.73438c0.16406 0.09375 0.32812 0.16016 0.48438 0.20312 0.16406 0.050781 0.33203 0.078125 0.5 0.078125 0.3125 0 0.53906-0.070313 0.6875-0.20312 0.14453-0.13672 0.21875-0.34766 0.21875-0.64062zm-0.64062-1.875c-0.19922 0-0.35547 0.074219-0.46875 0.21875-0.10547 0.14844-0.15625 0.35547-0.15625 0.625 0 0.27344 0.050781 0.48047 0.15625 0.625 0.11328 0.14844 0.26953 0.21875 0.46875 0.21875 0.19531 0 0.35156-0.070312 0.46875-0.21875 0.11328-0.14453 0.17188-0.35156 0.17188-0.625 0-0.26953-0.058594-0.47656-0.17188-0.625-0.11719-0.14453-0.27344-0.21875-0.46875-0.21875z"/>
  </symbol>
  <symbol id="u" overflow="visible">
   <path d="m0.45312-4.1562h0.96875v2.2656l1.0938-1.0938h1.1094l-1.4531 1.3594 1.5625 1.625h-1.1562l-1.1562-1.25v1.25h-0.96875z"/>
  </symbol>
  <symbol id="t" overflow="visible">
   <path d="m1.5781-0.75h1.75v0.75h-2.8906v-0.75l1.4531-1.2969c0.125-0.11328 0.21875-0.22266 0.28125-0.32812 0.0625-0.11328 0.09375-0.23438 0.09375-0.35938 0-0.1875-0.0625-0.33594-0.1875-0.45312-0.125-0.11328-0.29297-0.17188-0.5-0.17188-0.15625 0-0.33594 0.039063-0.53125 0.10938-0.1875 0.0625-0.39062 0.16406-0.60938 0.29688v-0.875c0.23828-0.070313 0.46875-0.12891 0.6875-0.17188 0.22656-0.039062 0.45312-0.0625 0.67188-0.0625 0.47656 0 0.84766 0.10938 1.1094 0.32812 0.25781 0.21094 0.39062 0.5 0.39062 0.875 0 0.21094-0.058594 0.41406-0.17188 0.60938-0.10547 0.1875-0.33984 0.4375-0.70312 0.75z"/>
  </symbol>
  <symbol id="s" overflow="visible">
   <path d="m1.9844-1.9688c-0.1875 0-0.32812 0.058594-0.42188 0.17188-0.085938 0.11719-0.125 0.29297-0.125 0.53125 0 0.23047 0.039062 0.40625 0.125 0.53125 0.09375 0.11719 0.23438 0.17188 0.42188 0.17188 0.17578 0 0.30469-0.054688 0.39062-0.17188 0.09375-0.125 0.14062-0.30078 0.14062-0.53125 0-0.23828-0.046875-0.41406-0.14062-0.53125-0.085938-0.11328-0.21484-0.17188-0.39062-0.17188zm1.2656-1.9062v0.73438c-0.16797-0.082031-0.32812-0.14062-0.48438-0.17188-0.14844-0.039062-0.29297-0.0625-0.4375-0.0625-0.30469 0-0.54297 0.085938-0.71875 0.25-0.16797 0.16797-0.26562 0.41797-0.29688 0.75 0.125-0.082031 0.25391-0.14453 0.39062-0.1875 0.13281-0.039062 0.28516-0.0625 0.45312-0.0625 0.40625 0 0.73438 0.12109 0.98438 0.35938 0.25 0.23047 0.375 0.54297 0.375 0.9375 0 0.42969-0.14062 0.77344-0.42188 1.0312-0.28125 0.25-0.65625 0.375-1.125 0.375-0.52344 0-0.92188-0.17188-1.2031-0.51562-0.28125-0.35156-0.42188-0.85156-0.42188-1.5 0-0.65625 0.16016-1.1719 0.48438-1.5469 0.33203-0.375 0.78906-0.5625 1.375-0.5625 0.1875 0 0.36328 0.015625 0.53125 0.046875 0.17578 0.023438 0.34766 0.0625 0.51562 0.125z"/>
  </symbol>
  <symbol id="r" overflow="visible">
   <path d="m2.4219-4.1562v0.625h-0.51562c-0.13672 0-0.23438 0.027344-0.29688 0.078125-0.054687 0.054687-0.078125 0.13672-0.078125 0.25v0.21875h0.82812v0.67188h-0.82812v2.3125h-0.95312v-2.3125h-0.46875v-0.67188h0.46875v-0.21875c0-0.32031 0.085937-0.5625 0.26562-0.71875 0.1875-0.15625 0.47266-0.23438 0.85938-0.23438z"/>
  </symbol>
  <symbol id="q" overflow="visible">
   <path d="m3.2344-2.5c0.11328-0.17578 0.25391-0.3125 0.42188-0.40625 0.16406-0.10156 0.35156-0.15625 0.5625-0.15625 0.33203 0 0.58594 0.10938 0.76562 0.32812 0.1875 0.21094 0.28125 0.51172 0.28125 0.90625v1.8281h-0.96875v-1.5625c0.007813-0.019531 0.015625-0.039062 0.015625-0.0625v-0.10938c0-0.21875-0.03125-0.375-0.09375-0.46875s-0.16406-0.14062-0.29688-0.14062c-0.1875 0-0.33594 0.078125-0.4375 0.23438-0.09375 0.14844-0.14062 0.35938-0.14062 0.64062v1.4688h-0.96875v-1.5625c0-0.33203-0.03125-0.54688-0.09375-0.64062-0.054688-0.09375-0.15234-0.14062-0.29688-0.14062-0.17969 0-0.32031 0.078125-0.42188 0.23438-0.09375 0.14844-0.14062 0.35938-0.14062 0.64062v1.4688h-0.96875v-2.9844h0.96875v0.4375c0.11328-0.17578 0.24219-0.30469 0.39062-0.39062 0.15625-0.082031 0.32812-0.125 0.51562-0.125 0.20703 0 0.39062 0.054688 0.54688 0.15625 0.15625 0.09375 0.27344 0.23047 0.35938 0.40625z"/>
  </symbol>
  <symbol id="p" overflow="visible">
   <path d="m3.4688-1.8281v1.8281h-0.96875v-1.3906c0-0.25781-0.007812-0.4375-0.015625-0.53125-0.011719-0.10156-0.03125-0.17578-0.0625-0.21875-0.03125-0.0625-0.085937-0.10938-0.15625-0.14062-0.0625-0.039062-0.13281-0.0625-0.20312-0.0625-0.21094 0-0.37109 0.078125-0.48438 0.23438-0.10547 0.15625-0.15625 0.37109-0.15625 0.64062v1.4688h-0.96875v-4.1562h0.96875v1.6094c0.13281-0.17578 0.28516-0.30469 0.45312-0.39062 0.16406-0.082031 0.34375-0.125 0.53125-0.125 0.34375 0 0.60156 0.10938 0.78125 0.32812 0.1875 0.21094 0.28125 0.51172 0.28125 0.90625z"/>
  </symbol>
  <symbol id="o" overflow="visible">
   <path d="m0.5-3.9844h1.1562l1.4375 2.7344v-2.7344h0.98438v3.9844h-1.1562l-1.4375-2.7344v2.7344h-0.98438z"/>
  </symbol>
  <symbol id="n" overflow="visible">
   <path d="m0.42188-1.1719v-1.8125h0.96875v0.29688 0.60938 0.48438c0 0.24219 0.003906 0.41797 0.015625 0.53125 0.007812 0.10547 0.03125 0.17969 0.0625 0.21875 0.039062 0.0625 0.09375 0.11719 0.15625 0.15625 0.0625 0.03125 0.13281 0.046875 0.21875 0.046875 0.19531 0 0.35156-0.078125 0.46875-0.23438 0.11328-0.15625 0.17188-0.36719 0.17188-0.64062v-1.4688h0.95312v2.9844h-0.95312v-0.4375c-0.14844 0.17969-0.30469 0.30859-0.46875 0.39062-0.15625 0.082031-0.33594 0.125-0.53125 0.125-0.34375 0-0.60938-0.10156-0.79688-0.3125-0.17969-0.21875-0.26562-0.53125-0.26562-0.9375z"/>
  </symbol>
  <symbol id="m" overflow="visible">
   <path d="m0.5-3.9844h1.7031c0.50781 0 0.89844 0.11719 1.1719 0.34375 0.26953 0.21875 0.40625 0.53906 0.40625 0.95312 0 0.41797-0.13672 0.74219-0.40625 0.96875-0.27344 0.21875-0.66406 0.32812-1.1719 0.32812h-0.67188v1.3906h-1.0312zm1.0312 0.75v1.1094h0.5625c0.19531 0 0.34766-0.046875 0.45312-0.14062 0.11328-0.10156 0.17188-0.24219 0.17188-0.42188 0-0.17578-0.058594-0.3125-0.17188-0.40625-0.10547-0.09375-0.25781-0.14062-0.45312-0.14062z"/>
  </symbol>
  <symbol id="l" overflow="visible">
   <path d="m0.45312-2.9844h0.96875v2.9375c0 0.39453-0.10156 0.69531-0.29688 0.90625-0.1875 0.21875-0.46484 0.32812-0.82812 0.32812h-0.48438v-0.64062h0.17188c0.17578 0 0.29688-0.042969 0.35938-0.125 0.070312-0.074219 0.10938-0.23047 0.10938-0.46875zm0-1.1719h0.96875v0.78125h-0.96875z"/>
  </symbol>
 </defs>
 <g>
  <path d="m451.04 424.38h19.688v19.688h-19.688z"/>
  <path d="m418.77 254.02v-195.88c-0.003906-12.879 5.2734-25.199 14.598-34.086h-248.48c-10.633 0.011719-20.828 4.2422-28.344 11.762-7.5195 7.5156-11.75 17.711-11.762 28.344v364.05l25.234-20.184c2.3945-1.918 5.8047-1.918 8.2031 0l31.797 25.434 31.789-25.434c2.3945-1.918 5.8047-1.918 8.2031 0l31.789 25.434 31.777-25.434c2.3984-1.918 5.8047-1.918 8.2031 0l31.789 25.434 4.7734-3.8203v-158.13c0.007812-4.6406 1.8516-9.0859 5.1328-12.367s7.7266-5.1289 12.367-5.1328zm-169.7-168.71h139c3.625 0 6.5625 2.9375 6.5625 6.5625s-2.9375 6.5625-6.5625 6.5625h-139c-3.625 0-6.5625-2.9375-6.5625-6.5625s2.9375-6.5625 6.5625-6.5625zm0 54.688h139c3.625 0 6.5625 2.9375 6.5625 6.5625s-2.9375 6.5625-6.5625 6.5625h-139c-3.625 0-6.5625-2.9375-6.5625-6.5625s2.9375-6.5625 6.5625-6.5625zm-73.594-54.688h2.5664c3.625 0 6.5625 2.9375 6.5625 6.5625s-2.9375 6.5625-6.5625 6.5625h-2.5664c-3.625 0-6.5625-2.9375-6.5625-6.5625s2.9375-6.5625 6.5625-6.5625zm0 54.688h2.5664c3.625 0 6.5625 2.9375 6.5625 6.5625s-2.9375 6.5625-6.5625 6.5625h-2.5664c-3.625 0-6.5625-2.9375-6.5625-6.5625s2.9375-6.5625 6.5625-6.5625zm0 54.688h2.5664c3.625 0 6.5625 2.9375 6.5625 6.5625s-2.9375 6.5625-6.5625 6.5625h-2.5664c-3.625 0-6.5625-2.9375-6.5625-6.5625s2.9375-6.5625 6.5625-6.5625zm0 54.688h2.5664c3.625 0 6.5625 2.9375 6.5625 6.5625s-2.9375 6.5625-6.5625 6.5625h-2.5664c-3.625 0-6.5625-2.9375-6.5625-6.5625s2.9375-6.5625 6.5625-6.5625zm16.309 92.211h-0.003906c7.3906-0.011719 14.328 3.5508 18.625 9.5586 4.3008 6.0039 5.4336 13.723 3.0391 20.711s-8.0195 12.391-15.102 14.5v4.1133c0 3.625-2.9375 6.5625-6.5625 6.5625-3.6211 0-6.5625-2.9375-6.5625-6.5625v-4.1094c-4.707-1.418-8.8359-4.3086-11.77-8.2539-2.9375-3.9453-4.5273-8.7266-4.5352-13.645 0-3.625 2.9375-6.5625 6.5625-6.5625s6.5625 2.9375 6.5625 6.5625c0.007812 5.3281 4.2969 9.6641 9.625 9.7344 0.039062 0 0.078125-0.007812 0.11719-0.007812 0.039063 0 0.078125 0.003906 0.11719 0.007812h-0.003906c5.3828-0.03125 9.7148-4.418 9.6836-9.8008-0.03125-5.3789-4.418-9.7148-9.7969-9.6797-7.3906 0.007812-14.328-3.5508-18.625-9.5586-4.3008-6.0078-5.4336-13.723-3.0391-20.711 2.3945-6.9883 8.0195-12.391 15.102-14.5v-3.3672c0-3.625 2.9375-6.5625 6.5625-6.5625 3.6211 0 6.5625 2.9375 6.5625 6.5625v3.3672c4.707 1.4141 8.8359 4.3086 11.773 8.2539 2.9375 3.9414 4.5273 8.7266 4.5352 13.645 0 3.625-2.9375 6.5625-6.5625 6.5625s-6.5625-2.9375-6.5625-6.5625c0-3.9414-2.375-7.4961-6.0156-9.0039-3.6406-1.5078-7.832-0.67188-10.621 2.1133-2.7852 2.7891-3.6211 6.9805-2.1094 10.621 1.5078 3.6406 5.0586 6.0156 9 6.0156zm31.258-79.086h-19.391c-3.625 0-6.5625-2.9375-6.5625-6.5625s2.9375-6.5625 6.5625-6.5625h19.391c3.625 0 6.5625 2.9375 6.5625 6.5625s-2.9375 6.5625-6.5625 6.5625zm0-54.688h-19.391c-3.625 0-6.5625-2.9375-6.5625-6.5625s2.9375-6.5625 6.5625-6.5625h19.391c3.625 0 6.5625 2.9375 6.5625 6.5625s-2.9375 6.5625-6.5625 6.5625zm0-54.688h-19.391c-3.625 0-6.5625-2.9375-6.5625-6.5625s2.9375-6.5625 6.5625-6.5625h19.391c3.625 0 6.5625 2.9375 6.5625 6.5625s-2.9375 6.5625-6.5625 6.5625zm0-54.688h-19.391c-3.625 0-6.5625-2.9375-6.5625-6.5625s2.9375-6.5625 6.5625-6.5625h19.391c3.625 0 6.5625 2.9375 6.5625 6.5625s-2.9375 6.5625-6.5625 6.5625zm69.867 274.21h-48.672 0.003906c-3.625 0-6.5625-2.9375-6.5625-6.5625 0-3.6211 2.9375-6.5625 6.5625-6.5625h48.672c3.625 0 6.5625 2.9414 6.5625 6.5625 0 3.625-2.9375 6.5625-6.5625 6.5625zm-50.402-116.71c0-3.625 2.9375-6.5625 6.5625-6.5625h84.312c3.625 0 6.5625 2.9375 6.5625 6.5625s-2.9375 6.5625-6.5625 6.5625h-84.312c-3.625 0-6.5625-2.9375-6.5625-6.5625zm98.609 116.71h-24.961c-3.625 0-6.5625-2.9375-6.5625-6.5625 0-3.6211 2.9375-6.5625 6.5625-6.5625h24.961c3.625 0 6.5625 2.9414 6.5625 6.5625 0 3.625-2.9375 6.5625-6.5625 6.5625zm-92.047-164.84c-3.625 0-6.5625-2.9375-6.5625-6.5625s2.9375-6.5625 6.5625-6.5625h139c3.625 0 6.5625 2.9375 6.5625 6.5625s-2.9375 6.5625-6.5625 6.5625z"/>
  <path d="m451.04 366.95h19.688v19.688h-19.688z"/>
  <path d="m396.07 366.95h19.688v19.688h-19.688z"/>
  <path d="m451.04 481.8h19.688v19.688h-19.688z"/>
  <path d="m396.07 424.38h19.688v19.688h-19.688z"/>
  <path d="m510.92 481.8h19.688v19.688h-19.688z"/>
  <path d="m431.89 58.148v100.54h68.176v-100.54c-0.070312-12.133-6.582-23.312-17.102-29.359-10.516-6.0469-23.457-6.0469-33.977 0-10.516 6.0469-17.027 17.227-17.098 29.359z"/>
  <path d="m550.84 267.15h-175c-2.418 0-4.375 1.957-4.375 4.375v260.04c0 1.1602 0.46094 2.2734 1.2812 3.0938 0.82031 0.82031 1.9336 1.2812 3.0938 1.2812h175c1.1602 0 2.2734-0.46094 3.0938-1.2812 0.82031-0.82031 1.2812-1.9336 1.2812-3.0938v-260.04c0-1.1602-0.46094-2.2734-1.2812-3.0938-0.82031-0.82031-1.9336-1.2812-3.0938-1.2812zm-121.95 240.9c0 3.625-2.9375 6.5625-6.5625 6.5625h-32.812c-3.625 0-6.5625-2.9375-6.5625-6.5625v-32.812c0-3.625 2.9375-6.5625 6.5625-6.5625h32.812c3.625 0 6.5625 2.9375 6.5625 6.5625zm0-57.422c0 3.625-2.9375 6.5625-6.5625 6.5625h-32.812c-3.625 0-6.5625-2.9375-6.5625-6.5625v-32.812c0-3.625 2.9375-6.5625 6.5625-6.5625h32.812c3.625 0 6.5625 2.9375 6.5625 6.5625zm0-57.422c0 3.625-2.9375 6.5625-6.5625 6.5625h-32.812c-3.625 0-6.5625-2.9375-6.5625-6.5625v-32.812c0-3.625 2.9375-6.5625 6.5625-6.5625h32.812c3.625 0 6.5625 2.9375 6.5625 6.5625zm54.961 114.84c0 3.625-2.9375 6.5625-6.5625 6.5625h-32.812c-3.625 0-6.5625-2.9375-6.5625-6.5625v-32.812c0-3.625 2.9375-6.5625 6.5625-6.5625h32.812c3.625 0 6.5625 2.9375 6.5625 6.5625zm0-57.422c0 3.625-2.9375 6.5625-6.5625 6.5625h-32.812c-3.625 0-6.5625-2.9375-6.5625-6.5625v-32.812c0-3.625 2.9375-6.5625 6.5625-6.5625h32.812c3.625 0 6.5625 2.9375 6.5625 6.5625zm0-57.422c0 3.625-2.9375 6.5625-6.5625 6.5625h-32.812c-3.625 0-6.5625-2.9375-6.5625-6.5625v-32.812c0-3.625 2.9375-6.5625 6.5625-6.5625h32.812c3.625 0 6.5625 2.9375 6.5625 6.5625zm59.883 114.84c0 3.625-2.9375 6.5625-6.5625 6.5625h-32.812c-3.625 0-6.5625-2.9375-6.5625-6.5625v-32.812c0-3.625 2.9375-6.5625 6.5625-6.5625h32.812c3.625 0 6.5625 2.9375 6.5625 6.5625zm0-57.422c0 3.625-2.9375 6.5625-6.5625 6.5625h-32.812c-3.625 0-6.5625-2.9375-6.5625-6.5625v-32.812c0-3.625 2.9375-6.5625 6.5625-6.5625h32.812c3.625 0 6.5625 2.9375 6.5625 6.5625zm0-57.422c0 3.625-2.9375 6.5625-6.5625 6.5625h-32.812c-3.625 0-6.5625-2.9375-6.5625-6.5625v-32.812c0-3.625 2.9375-6.5625 6.5625-6.5625h32.812c3.625 0 6.5625 2.9375 6.5625 6.5625zm0-69.727c0 3.625-2.9375 6.5625-6.5625 6.5625h-147.66c-3.625 0-6.5625-2.9375-6.5625-6.5625v-38.281c0-3.625 2.9375-6.5625 6.5625-6.5625h147.66c3.625 0 6.5625 2.9375 6.5625 6.5625z"/>
  <path d="m396.07 291.76h134.53v25.156h-134.53z"/>
  <path d="m510.92 366.95h19.688v19.688h-19.688z"/>
  <path d="m396.07 481.8h19.688v19.688h-19.688z"/>
  <path d="m510.92 424.38h19.688v19.688h-19.688z"/>
  <use x="70" y="576.40625" xlink:href="#w"/>
  <use x="74.011719" y="576.40625" xlink:href="#d"/>
  <use x="76.710938" y="576.40625" xlink:href="#a"/>
  <use x="80.417969" y="576.40625" xlink:href="#k"/>
  <use x="84.109375" y="576.40625" xlink:href="#c"/>
  <use x="86.722656" y="576.40625" xlink:href="#a"/>
  <use x="90.433594" y="576.40625" xlink:href="#j"/>
  <use x="96.25" y="576.40625" xlink:href="#i"/>
  <use x="100.167969" y="576.40625" xlink:href="#h"/>
  <use x="105.636719" y="576.40625" xlink:href="#g"/>
  <use x="107.667969" y="576.40625" xlink:href="#f"/>
  <use x="110.910156" y="576.40625" xlink:href="#b"/>
  <use x="114.667969" y="576.40625" xlink:href="#e"/>
  <use x="118.5625" y="576.40625" xlink:href="#v"/>
  <use x="122.476562" y="576.40625" xlink:href="#a"/>
  <use x="126.183594" y="576.40625" xlink:href="#a"/>
  <use x="129.894531" y="576.40625" xlink:href="#u"/>
  <use x="133.53125" y="576.40625" xlink:href="#t"/>
  <use x="137.335938" y="576.40625" xlink:href="#s"/>
  <use x="70" y="581.875" xlink:href="#r"/>
  <use x="72.378906" y="581.875" xlink:href="#d"/>
  <use x="75.078125" y="581.875" xlink:href="#b"/>
  <use x="78.832031" y="581.875" xlink:href="#q"/>
  <use x="86.4375" y="581.875" xlink:href="#c"/>
  <use x="89.050781" y="581.875" xlink:href="#p"/>
  <use x="92.941406" y="581.875" xlink:href="#a"/>
  <use x="98.554688" y="581.875" xlink:href="#o"/>
  <use x="103.132812" y="581.875" xlink:href="#b"/>
  <use x="106.890625" y="581.875" xlink:href="#n"/>
  <use x="110.785156" y="581.875" xlink:href="#e"/>
  <use x="116.582031" y="581.875" xlink:href="#m"/>
  <use x="120.589844" y="581.875" xlink:href="#d"/>
  <use x="123.285156" y="581.875" xlink:href="#b"/>
  <use x="127.042969" y="581.875" xlink:href="#l"/>
  <use x="128.917969" y="581.875" xlink:href="#a"/>
  <use x="132.625" y="581.875" xlink:href="#f"/>
  <use x="135.867188" y="581.875" xlink:href="#c"/>
 </g>
</svg>
