<?xml version="1.0" encoding="UTF-8"?>
<svg width="700pt" height="700pt" version="1.1" viewBox="0 0 700 700" xmlns="http://www.w3.org/2000/svg" xmlns:xlink="http://www.w3.org/1999/xlink">
 <defs>
  <symbol id="t" overflow="visible">
   <path d="m5.875-0.35938c-0.30469 0.16797-0.62109 0.28906-0.95312 0.35938-0.32422 0.082031-0.66406 0.125-1.0156 0.125-1.0625 0-1.9062-0.29688-2.5312-0.89062s-0.9375-1.3984-0.9375-2.4219c0-1.0312 0.3125-1.8438 0.9375-2.4375s1.4688-0.89062 2.5312-0.89062c0.35156 0 0.69141 0.042969 1.0156 0.125 0.33203 0.074219 0.64844 0.1875 0.95312 0.34375v1.3281c-0.30469-0.20703-0.60547-0.35938-0.90625-0.45312-0.29297-0.10156-0.60547-0.15625-0.9375-0.15625-0.58594 0-1.0469 0.19531-1.3906 0.57812-0.33594 0.375-0.5 0.89844-0.5 1.5625 0 0.65625 0.16406 1.1719 0.5 1.5469 0.34375 0.375 0.80469 0.5625 1.3906 0.5625 0.33203 0 0.64453-0.046875 0.9375-0.14062 0.30078-0.09375 0.60156-0.24219 0.90625-0.45312z"/>
  </symbol>
  <symbol id="d" overflow="visible">
   <path d="m4.3125-3.5c-0.13672-0.0625-0.27344-0.10156-0.40625-0.125-0.13672-0.03125-0.27344-0.046875-0.40625-0.046875-0.39844 0-0.70312 0.125-0.92188 0.375-0.21094 0.25-0.3125 0.60938-0.3125 1.0781v2.2188h-1.5312v-4.7969h1.5312v0.78125c0.19531-0.3125 0.42188-0.53906 0.67188-0.6875 0.25781-0.14453 0.57031-0.21875 0.9375-0.21875 0.050781 0 0.10156 0.007813 0.15625 0.015625 0.0625 0 0.14844 0.007812 0.26562 0.015625z"/>
  </symbol>
  <symbol id="a" overflow="visible">
   <path d="m5.5312-2.4062v0.42188h-3.5938c0.039062 0.36719 0.17188 0.64062 0.39062 0.82812 0.22656 0.17969 0.53906 0.26562 0.9375 0.26562 0.32031 0 0.64844-0.046875 0.98438-0.14062 0.34375-0.10156 0.69141-0.25 1.0469-0.4375v1.1719c-0.35547 0.14844-0.71484 0.25-1.0781 0.3125-0.36719 0.070312-0.73047 0.10938-1.0938 0.10938-0.86719 0-1.543-0.21875-2.0312-0.65625-0.48047-0.44531-0.71875-1.0664-0.71875-1.8594 0-0.78906 0.23438-1.4102 0.70312-1.8594 0.47656-0.44531 1.1328-0.67188 1.9688-0.67188 0.75 0 1.3477 0.23047 1.7969 0.6875 0.45703 0.46094 0.6875 1.0703 0.6875 1.8281zm-1.5781-0.51562c0-0.28906-0.089844-0.52344-0.26562-0.70312-0.16797-0.17578-0.38672-0.26562-0.65625-0.26562-0.30469 0-0.54688 0.085937-0.73438 0.25-0.17969 0.16797-0.29297 0.40625-0.34375 0.71875z"/>
  </symbol>
  <symbol id="k" overflow="visible">
   <path d="m2.8906-2.1562c-0.32422 0-0.57031 0.058594-0.73438 0.17188-0.15625 0.10547-0.23438 0.26172-0.23438 0.46875 0 0.19922 0.0625 0.35547 0.1875 0.46875 0.13281 0.10547 0.31641 0.15625 0.54688 0.15625 0.28906 0 0.53516-0.10156 0.73438-0.3125 0.19531-0.20703 0.29688-0.46875 0.29688-0.78125v-0.17188zm2.3438-0.57812v2.7344h-1.5469v-0.71875c-0.21094 0.29297-0.44531 0.50781-0.70312 0.64062-0.25 0.13281-0.5625 0.20312-0.9375 0.20312-0.49219 0-0.89062-0.14453-1.2031-0.4375-0.3125-0.28906-0.46875-0.66406-0.46875-1.125 0-0.5625 0.19141-0.97266 0.57812-1.2344 0.39453-0.26953 1.0039-0.40625 1.8281-0.40625h0.90625v-0.10938c0-0.25-0.10156-0.42578-0.29688-0.53125-0.1875-0.11328-0.48438-0.17188-0.89062-0.17188-0.32422 0-0.63281 0.03125-0.92188 0.09375-0.28125 0.0625-0.54297 0.16406-0.78125 0.29688v-1.1719c0.33203-0.082031 0.66016-0.14453 0.98438-0.1875 0.33203-0.039063 0.66406-0.0625 1-0.0625 0.86328 0 1.4883 0.17188 1.875 0.51562 0.38281 0.34375 0.57812 0.90234 0.57812 1.6719z"/>
  </symbol>
  <symbol id="c" overflow="visible">
   <path d="m2.4062-6.1719v1.375h1.5938v1.0938h-1.5938v2.0312c0 0.23047 0.046875 0.38672 0.14062 0.46875 0.09375 0.074219 0.26953 0.10938 0.53125 0.10938h0.78125v1.0938h-1.3125c-0.60547 0-1.0391-0.125-1.2969-0.375-0.25-0.25781-0.375-0.69141-0.375-1.2969v-2.0312h-0.76562v-1.0938h0.76562v-1.375z"/>
  </symbol>
  <symbol id="j" overflow="visible">
   <path d="m4-4.0938v-2.5781h1.5469v6.6719h-1.5469v-0.6875c-0.21094 0.28125-0.44531 0.49219-0.70312 0.625-0.25 0.125-0.54297 0.1875-0.875 0.1875-0.59375 0-1.0859-0.23438-1.4688-0.70312-0.375-0.46875-0.5625-1.0703-0.5625-1.8125 0-0.73828 0.1875-1.3438 0.5625-1.8125 0.38281-0.47656 0.875-0.71875 1.4688-0.71875 0.33203 0 0.625 0.070313 0.875 0.20312 0.25781 0.13672 0.49219 0.34375 0.70312 0.625zm-1 3.1094c0.32031 0 0.56641-0.11719 0.73438-0.35938 0.17578-0.23828 0.26562-0.58594 0.26562-1.0469 0-0.45703-0.089844-0.80469-0.26562-1.0469-0.16797-0.23828-0.41406-0.35938-0.73438-0.35938-0.33594 0-0.58984 0.12109-0.76562 0.35938-0.16797 0.24219-0.25 0.58984-0.25 1.0469 0 0.46094 0.082031 0.80859 0.25 1.0469 0.17578 0.24219 0.42969 0.35938 0.76562 0.35938z"/>
  </symbol>
  <symbol id="i" overflow="visible">
   <path d="m3.2969-0.98438c0.32031 0 0.57031-0.11719 0.75-0.35938 0.17578-0.23828 0.26562-0.58594 0.26562-1.0469 0-0.45703-0.089844-0.80469-0.26562-1.0469-0.17969-0.23828-0.42969-0.35938-0.75-0.35938-0.33594 0-0.58984 0.12109-0.76562 0.35938-0.17969 0.24219-0.26562 0.58984-0.26562 1.0469 0 0.44922 0.085937 0.79688 0.26562 1.0469 0.17578 0.24219 0.42969 0.35938 0.76562 0.35938zm-1.0312-3.1094c0.21875-0.28125 0.45312-0.48828 0.70312-0.625 0.25781-0.13281 0.55469-0.20312 0.89062-0.20312 0.59375 0 1.0781 0.24219 1.4531 0.71875 0.38281 0.46875 0.57812 1.0742 0.57812 1.8125 0 0.74219-0.19531 1.3438-0.57812 1.8125-0.375 0.46875-0.85938 0.70312-1.4531 0.70312-0.33594 0-0.63281-0.070312-0.89062-0.20312-0.25-0.13281-0.48438-0.33594-0.70312-0.60938v0.6875h-1.5312v-6.6719h1.5312z"/>
  </symbol>
  <symbol id="h" overflow="visible">
   <path d="m0.10938-4.7969h1.5312l1.2969 3.25 1.0938-3.25h1.5312l-2.0156 5.25c-0.21094 0.53125-0.44922 0.89844-0.71875 1.1094-0.26172 0.21875-0.61719 0.32812-1.0625 0.32812h-0.89062v-1h0.48438c0.25781 0 0.44531-0.042969 0.5625-0.125 0.125-0.085937 0.21875-0.23438 0.28125-0.45312l0.046875-0.125z"/>
  </symbol>
  <symbol id="g" overflow="visible">
   <path d="m3.7344-5.3281c-0.51172 0-0.90625 0.1875-1.1875 0.5625-0.27344 0.375-0.40625 0.90234-0.40625 1.5781 0 0.66797 0.13281 1.1875 0.40625 1.5625 0.28125 0.36719 0.67578 0.54688 1.1875 0.54688 0.5 0 0.89062-0.17969 1.1719-0.54688 0.28125-0.375 0.42188-0.89453 0.42188-1.5625 0-0.67578-0.14062-1.2031-0.42188-1.5781s-0.67188-0.5625-1.1719-0.5625zm0-1.1875c1.0312 0 1.832 0.29688 2.4062 0.89062 0.58203 0.58594 0.875 1.3984 0.875 2.4375 0 1.0312-0.29297 1.8438-0.875 2.4375-0.57422 0.58594-1.375 0.875-2.4062 0.875s-1.8398-0.28906-2.4219-0.875c-0.58594-0.59375-0.875-1.4062-0.875-2.4375 0-1.0391 0.28906-1.8516 0.875-2.4375 0.58203-0.59375 1.3906-0.89062 2.4219-0.89062z"/>
  </symbol>
  <symbol id="f" overflow="visible">
   <path d="m5.5625-2.9219v2.9219h-1.5469v-2.2344c0-0.41406-0.011719-0.70312-0.03125-0.85938-0.011719-0.15625-0.042969-0.26953-0.09375-0.34375-0.054687-0.10156-0.13281-0.17969-0.23438-0.23438-0.10547-0.0625-0.22656-0.09375-0.35938-0.09375-0.3125 0-0.5625 0.125-0.75 0.375s-0.28125 0.59375-0.28125 1.0312v2.3594h-1.5312v-4.7969h1.5312v0.70312c0.23828-0.28125 0.48828-0.48828 0.75-0.625 0.25781-0.13281 0.54688-0.20312 0.85938-0.20312 0.55078 0 0.96875 0.17188 1.25 0.51562 0.28906 0.34375 0.4375 0.83984 0.4375 1.4844z"/>
  </symbol>
  <symbol id="s" overflow="visible">
   <path d="m5.2656-6.2031v1.3594c-0.35547-0.15625-0.69922-0.27344-1.0312-0.35938-0.33594-0.082031-0.65234-0.125-0.95312-0.125-0.39844 0-0.6875 0.058594-0.875 0.17188-0.1875 0.10547-0.28125 0.27344-0.28125 0.5 0 0.17969 0.0625 0.3125 0.1875 0.40625 0.13281 0.09375 0.36719 0.17969 0.70312 0.25l0.70312 0.14062c0.70703 0.13672 1.2109 0.35156 1.5156 0.64062 0.30078 0.29297 0.45312 0.71094 0.45312 1.25 0 0.71094-0.21484 1.2344-0.64062 1.5781-0.41797 0.34375-1.0547 0.51562-1.9062 0.51562-0.40625 0-0.82031-0.042969-1.2344-0.125-0.40625-0.070312-0.8125-0.17969-1.2188-0.32812v-1.4062c0.40625 0.21875 0.79688 0.38672 1.1719 0.5 0.38281 0.10547 0.75391 0.15625 1.1094 0.15625 0.36328 0 0.64062-0.054687 0.82812-0.17188 0.19531-0.125 0.29688-0.29688 0.29688-0.51562 0-0.19531-0.070312-0.34766-0.20312-0.45312-0.125-0.11328-0.38672-0.21094-0.78125-0.29688l-0.625-0.14062c-0.64844-0.14453-1.1211-0.36328-1.4219-0.65625-0.29297-0.30078-0.4375-0.70703-0.4375-1.2188 0-0.63281 0.20312-1.125 0.60938-1.4688 0.41406-0.34375 1.0078-0.51562 1.7812-0.51562 0.35156 0 0.71875 0.027344 1.0938 0.078125 0.375 0.054688 0.75781 0.13281 1.1562 0.23438z"/>
  </symbol>
  <symbol id="e" overflow="visible">
   <path d="m5.5625-2.9219v2.9219h-1.5469v-2.2344c0-0.41406-0.011719-0.70312-0.03125-0.85938-0.011719-0.15625-0.042969-0.26953-0.09375-0.34375-0.054687-0.10156-0.13281-0.17969-0.23438-0.23438-0.10547-0.0625-0.22656-0.09375-0.35938-0.09375-0.3125 0-0.5625 0.125-0.75 0.375s-0.28125 0.59375-0.28125 1.0312v2.3594h-1.5312v-6.6719h1.5312v2.5781c0.23828-0.28125 0.48828-0.48828 0.75-0.625 0.25781-0.13281 0.54688-0.20312 0.85938-0.20312 0.55078 0 0.96875 0.17188 1.25 0.51562 0.28906 0.34375 0.4375 0.83984 0.4375 1.4844z"/>
  </symbol>
  <symbol id="b" overflow="visible">
   <path d="m3.0156-3.8281c-0.33594 0-0.58984 0.125-0.76562 0.375-0.17969 0.24219-0.26562 0.59375-0.26562 1.0625 0 0.46094 0.085937 0.8125 0.26562 1.0625 0.17578 0.24219 0.42969 0.35938 0.76562 0.35938 0.34375 0 0.60156-0.11719 0.78125-0.35938 0.17578-0.25 0.26562-0.60156 0.26562-1.0625 0-0.46875-0.089844-0.82031-0.26562-1.0625-0.17969-0.25-0.4375-0.375-0.78125-0.375zm0-1.0938c0.83203 0 1.4766 0.22656 1.9375 0.67188 0.46875 0.44922 0.70312 1.0703 0.70312 1.8594 0 0.78125-0.23438 1.3984-0.70312 1.8438-0.46094 0.44922-1.1055 0.67188-1.9375 0.67188-0.82422 0-1.4688-0.22266-1.9375-0.67188-0.46875-0.44531-0.70312-1.0625-0.70312-1.8438 0-0.78906 0.23438-1.4102 0.70312-1.8594 0.46875-0.44531 1.1133-0.67188 1.9375-0.67188z"/>
  </symbol>
  <symbol id="r" overflow="visible">
   <path d="m3.8906-6.6719v1h-0.84375c-0.21875 0-0.37109 0.042969-0.45312 0.125-0.085938 0.085937-0.125 0.21875-0.125 0.40625v0.34375h1.3125v1.0938h-1.3125v3.7031h-1.5312v-3.7031h-0.76562v-1.0938h0.76562v-0.34375c0-0.51953 0.14453-0.90625 0.4375-1.1562 0.28906-0.25 0.73828-0.375 1.3438-0.375z"/>
  </symbol>
  <symbol id="q" overflow="visible">
   <path d="m5.1875-4c0.19531-0.30078 0.42578-0.53125 0.6875-0.6875 0.26953-0.15625 0.56641-0.23438 0.89062-0.23438 0.55078 0 0.96875 0.17188 1.25 0.51562 0.28906 0.34375 0.4375 0.83984 0.4375 1.4844v2.9219h-1.5469v-2.5c0.007812-0.039062 0.015625-0.082031 0.015625-0.125v-0.17188c0-0.33203-0.054687-0.57812-0.15625-0.73438-0.09375-0.15625-0.25781-0.23438-0.48438-0.23438-0.29297 0-0.51562 0.12109-0.67188 0.35938-0.15625 0.24219-0.24219 0.58984-0.25 1.0469v2.3594h-1.5312v-2.5c0-0.53125-0.046875-0.875-0.14062-1.0312s-0.26172-0.23438-0.5-0.23438c-0.29297 0-0.52344 0.125-0.6875 0.375-0.15625 0.24219-0.23438 0.58594-0.23438 1.0312v2.3594h-1.5312v-4.7969h1.5312v0.70312c0.19531-0.26953 0.41406-0.47266 0.65625-0.60938 0.23828-0.14453 0.50781-0.21875 0.8125-0.21875 0.33203 0 0.625 0.085937 0.875 0.25 0.25 0.15625 0.44141 0.38281 0.57812 0.67188z"/>
  </symbol>
  <symbol id="p" overflow="visible">
   <path d="m0.8125-6.4062h1.8438l2.3281 4.3906v-4.3906h1.5625v6.4062h-1.8438l-2.3281-4.3906v4.3906h-1.5625z"/>
  </symbol>
  <symbol id="o" overflow="visible">
   <path d="m0.6875-1.875v-2.9219h1.5469v0.46875c0 0.26172-0.007813 0.58984-0.015625 0.98438v0.78125c0 0.38672 0.007812 0.66797 0.03125 0.84375 0.019531 0.16797 0.054688 0.29297 0.10938 0.375 0.0625 0.09375 0.14062 0.17188 0.23438 0.23438 0.10156 0.054687 0.22266 0.078125 0.35938 0.078125 0.32031 0 0.57031-0.125 0.75-0.375 0.1875-0.25 0.28125-0.59375 0.28125-1.0312v-2.3594h1.5312v4.7969h-1.5312v-0.6875c-0.24219 0.27344-0.49219 0.47656-0.75 0.60938-0.25 0.13281-0.53125 0.20312-0.84375 0.20312-0.55469 0-0.97656-0.16406-1.2656-0.5-0.29297-0.34375-0.4375-0.84375-0.4375-1.5z"/>
  </symbol>
  <symbol id="n" overflow="visible">
   <path d="m0.8125-6.4062h2.7344c0.8125 0 1.4375 0.18359 1.875 0.54688 0.4375 0.36719 0.65625 0.88281 0.65625 1.5469 0 0.66797-0.21875 1.1836-0.65625 1.5469-0.4375 0.36719-1.0625 0.54688-1.875 0.54688h-1.0938v2.2188h-1.6406zm1.6406 1.2031v1.7812h0.92188c0.3125 0 0.55469-0.078125 0.73438-0.23438 0.17578-0.15625 0.26562-0.375 0.26562-0.65625 0-0.28906-0.089844-0.50781-0.26562-0.65625-0.17969-0.15625-0.42188-0.23438-0.73438-0.23438z"/>
  </symbol>
  <symbol id="m" overflow="visible">
   <path d="m0.73438-4.7969h1.5312v4.7188c0 0.63281-0.15625 1.1172-0.46875 1.4531-0.30469 0.34375-0.74609 0.51562-1.3281 0.51562h-0.76562v-1h0.26562c0.28906 0 0.48828-0.070313 0.59375-0.20312 0.11328-0.125 0.17188-0.38281 0.17188-0.76562zm0-1.875h1.5312v1.25h-1.5312z"/>
  </symbol>
  <symbol id="l" overflow="visible">
   <path d="m4.625-4.6562v1.25c-0.21094-0.13281-0.42188-0.23828-0.64062-0.3125-0.21094-0.070312-0.42969-0.10938-0.65625-0.10938-0.42969 0-0.76172 0.13281-1 0.39062-0.23047 0.25-0.34375 0.60156-0.34375 1.0469 0 0.44922 0.11328 0.79688 0.34375 1.0469 0.23828 0.25 0.57031 0.375 1 0.375 0.25 0 0.47656-0.035156 0.6875-0.10938 0.21875-0.070313 0.42188-0.17578 0.60938-0.3125v1.25c-0.25 0.085938-0.5 0.14453-0.75 0.1875-0.24219 0.050781-0.48438 0.078125-0.73438 0.078125-0.86719 0-1.543-0.21875-2.0312-0.65625-0.49219-0.44531-0.73438-1.0664-0.73438-1.8594 0-0.78906 0.24219-1.4102 0.73438-1.8594 0.48828-0.44531 1.1641-0.67188 2.0312-0.67188 0.25 0 0.49219 0.027344 0.73438 0.078125 0.25 0.042969 0.5 0.10547 0.75 0.1875z"/>
  </symbol>
 </defs>
 <g>
  <path d="m349.12 477.49c-19.309 0-35.109 15.801-35.109 35.109 0 8.7773 3.5117 17.555 8.7773 24.578 3.5117-7.0234 10.531-14.043 19.309-15.801-5.2656-3.5117-8.7773-8.7773-8.7773-14.043 0-8.7773 7.0234-15.801 15.801-15.801s17.555 7.0234 17.555 15.801c0 5.2656-3.5117 10.531-8.7773 14.043 8.7773 1.7539 15.801 8.7773 19.309 15.801 5.2656-7.0234 8.7773-15.801 8.7773-24.578 0-19.309-15.801-35.109-36.863-35.109zm78.996-266.83c15.801 15.801 24.578 38.621 26.332 63.199h82.508c1.7539-22.82 22.82-40.375 45.645-40.375 26.332 0 47.398 21.066 47.398 45.645 0 26.332-21.066 47.398-47.398 47.398-22.82 0-43.887-17.555-45.645-42.133l-82.508 1.7539c-1.7539 24.578-10.531 45.645-26.332 63.199 98.309 98.309 84.262 100.06-8.7773 8.7773-17.555 15.801-38.621 24.578-64.953 26.332l1.7539 82.508c22.82 1.7539 40.375 22.82 40.375 45.645 0 26.332-21.066 47.398-47.398 47.398-24.578 0-45.645-21.066-45.645-47.398 0-22.82 17.555-43.887 40.375-45.645v-82.508c-24.578-1.7539-47.398-10.531-64.953-26.332-126.39 126.39-133.42 119.37-7.0234-8.7773-15.801-17.555-24.578-38.621-26.332-64.953l-82.508 1.7539c-1.7539 22.82-22.82 40.375-45.645 40.375-26.332 0-47.398-21.066-47.398-47.398 0-24.578 21.066-45.645 47.398-45.645 22.82 0 43.887 17.555 45.645 40.375h82.508c1.7539-24.578 10.531-47.398 26.332-64.953-208.9-207.15-56.176-70.219 8.7773-7.0234 15.801-15.801 38.621-24.578 63.199-26.332v-82.508c-22.82-1.7539-40.375-22.82-40.375-45.645 0-26.332 21.066-47.398 45.645-47.398 26.332 0 47.398 21.066 47.398 47.398 0 22.82-17.555 43.887-42.133 45.645l1.7539 82.508c24.578 1.7539 45.645 10.531 63.199 26.332 64.953-64.953 215.93-201.88 8.7773 8.7773zm154.48 47.398c8.7773 0 15.801 7.0234 15.801 15.801 0 7.0234-3.5117 12.289-8.7773 14.043 10.531 1.7539 17.555 8.7773 19.309 15.801 7.0234-7.0234 10.531-14.043 10.531-24.578 0-19.309-17.555-35.109-36.863-35.109-19.309 0-35.109 15.801-35.109 35.109 0 10.531 3.5117 17.555 8.7773 24.578 1.7539-7.0234 10.531-14.043 19.309-15.801-5.2656-1.7539-8.7773-7.0234-8.7773-14.043 0-8.7773 7.0234-15.801 15.801-15.801zm-465.2 0c8.7773 0 15.801 7.0234 15.801 15.801 0 7.0234-3.5117 12.289-8.7773 14.043 8.7773 1.7539 15.801 8.7773 19.309 15.801 5.2656-7.0234 8.7773-14.043 8.7773-24.578 0-19.309-15.801-35.109-35.109-35.109-21.066 0-36.863 15.801-36.863 35.109 0 10.531 3.5117 17.555 8.7773 24.578 3.5117-7.0234 10.531-14.043 19.309-15.801-5.2656-1.7539-8.7773-7.0234-8.7773-14.043 0-8.7773 8.7773-15.801 17.555-15.801zm231.72-233.48c8.7773 0 17.555 7.0234 17.555 15.801 0 7.0234-3.5117 12.289-8.7773 15.801 8.7773 1.7539 15.801 7.0234 19.309 14.043 5.2656-5.2656 8.7773-14.043 8.7773-22.82 0-21.066-15.801-36.863-36.863-36.863-19.309 0-35.109 15.801-35.109 36.863 0 8.7773 3.5117 17.555 8.7773 22.82 3.5117-7.0234 10.531-12.289 19.309-14.043-5.2656-3.5117-8.7773-8.7773-8.7773-15.801 0-8.7773 7.0234-15.801 15.801-15.801zm0 201.88c22.82 0 40.375 17.555 40.375 38.621 0 15.801-8.7773 28.086-22.82 35.109 26.332 5.2656 47.398 24.578 49.152 45.645 17.555-17.555 28.086-42.133 28.086-66.707 0-50.91-42.133-93.039-94.797-93.039-50.91 0-93.039 42.133-93.039 93.039 0 24.578 10.531 49.152 28.086 66.707 1.7539-21.066 21.066-40.375 47.398-45.645-12.289-7.0234-21.066-19.309-21.066-35.109 0-21.066 17.555-38.621 38.621-38.621z"/>
  <use x="70" y="586.332031" xlink:href="#t"/>
  <use x="76.441406" y="586.332031" xlink:href="#d"/>
  <use x="80.769531" y="586.332031" xlink:href="#a"/>
  <use x="86.722656" y="586.332031" xlink:href="#k"/>
  <use x="92.644531" y="586.332031" xlink:href="#c"/>
  <use x="96.84375" y="586.332031" xlink:href="#a"/>
  <use x="102.796875" y="586.332031" xlink:href="#j"/>
  <use x="112.132812" y="586.332031" xlink:href="#i"/>
  <use x="118.417969" y="586.332031" xlink:href="#h"/>
  <use x="127.195312" y="586.332031" xlink:href="#g"/>
  <use x="134.65625" y="586.332031" xlink:href="#f"/>
  <use x="140.90625" y="586.332031" xlink:href="#a"/>
  <use x="146.859375" y="586.332031" xlink:href="#s"/>
  <use x="153.179688" y="586.332031" xlink:href="#e"/>
  <use x="159.429688" y="586.332031" xlink:href="#b"/>
  <use x="165.457031" y="586.332031" xlink:href="#b"/>
  <use x="171.488281" y="586.332031" xlink:href="#c"/>
  <use x="70" y="595.109375" xlink:href="#r"/>
  <use x="73.820312" y="595.109375" xlink:href="#d"/>
  <use x="78.148438" y="595.109375" xlink:href="#b"/>
  <use x="84.175781" y="595.109375" xlink:href="#q"/>
  <use x="96.378906" y="595.109375" xlink:href="#c"/>
  <use x="100.574219" y="595.109375" xlink:href="#e"/>
  <use x="106.824219" y="595.109375" xlink:href="#a"/>
  <use x="115.832031" y="595.109375" xlink:href="#p"/>
  <use x="123.179688" y="595.109375" xlink:href="#b"/>
  <use x="129.210938" y="595.109375" xlink:href="#o"/>
  <use x="135.457031" y="595.109375" xlink:href="#f"/>
  <use x="144.761719" y="595.109375" xlink:href="#n"/>
  <use x="151.195312" y="595.109375" xlink:href="#d"/>
  <use x="155.523438" y="595.109375" xlink:href="#b"/>
  <use x="161.554688" y="595.109375" xlink:href="#m"/>
  <use x="164.5625" y="595.109375" xlink:href="#a"/>
  <use x="170.515625" y="595.109375" xlink:href="#l"/>
  <use x="175.71875" y="595.109375" xlink:href="#c"/>
 </g>
</svg>
