<?xml version="1.0" encoding="UTF-8"?>
<svg width="700pt" height="700pt" version="1.1" viewBox="0 0 700 700" xmlns="http://www.w3.org/2000/svg" xmlns:xlink="http://www.w3.org/1999/xlink">
 <defs>
  <symbol id="m" overflow="visible">
   <path d="m33.766-2.0156c-1.7422 0.89844-3.5547 1.5742-5.4375 2.0312-1.8867 0.46875-3.8555 0.70312-5.9062 0.70312-6.125 0-10.977-1.707-14.547-5.125-3.5742-3.4258-5.3594-8.0703-5.3594-13.938 0-5.8633 1.7852-10.504 5.3594-13.922 3.5703-3.4258 8.4219-5.1406 14.547-5.1406 2.0508 0 4.0195 0.23047 5.9062 0.6875 1.8828 0.46094 3.6953 1.1406 5.4375 2.0469v7.5938c-1.75-1.1953-3.4805-2.0703-5.1875-2.625-1.7109-0.5625-3.5078-0.84375-5.3906-0.84375-3.3867 0-6.0469 1.0859-7.9844 3.25-1.9297 2.168-2.8906 5.1523-2.8906 8.9531 0 3.793 0.96094 6.7734 2.8906 8.9375 1.9375 2.168 4.5977 3.25 7.9844 3.25 1.8828 0 3.6797-0.27344 5.3906-0.82812 1.707-0.5625 3.4375-1.4414 5.1875-2.6406z"/>
  </symbol>
  <symbol id="d" overflow="visible">
   <path d="m24.703-20.062c-0.77344-0.35156-1.5391-0.61719-2.2969-0.79688-0.76172-0.17578-1.5273-0.26562-2.2969-0.26562-2.2617 0-4.0078 0.73047-5.2344 2.1875-1.2188 1.4492-1.8281 3.5273-1.8281 6.2344v12.703h-8.8125v-27.562h8.8125v4.5312c1.1328-1.8125 2.4375-3.1289 3.9062-3.9531 1.4688-0.83203 3.2227-1.25 5.2656-1.25 0.30078 0 0.625 0.015625 0.96875 0.046875 0.34375 0.023438 0.84375 0.074219 1.5 0.15625z"/>
  </symbol>
  <symbol id="b" overflow="visible">
   <path d="m31.75-13.859v2.5156h-20.594c0.20703 2.0625 0.95312 3.6172 2.2344 4.6562 1.2812 1.0312 3.0664 1.5469 5.3594 1.5469 1.8516 0 3.7539-0.27344 5.7031-0.82812 1.9453-0.55078 3.9453-1.3828 6-2.5v6.7969c-2.0938 0.78125-4.1836 1.375-6.2656 1.7812-2.0859 0.40625-4.168 0.60938-6.25 0.60938-4.9922 0-8.8672-1.2656-11.625-3.7969-2.7617-2.5391-4.1406-6.1016-4.1406-10.688 0-4.4883 1.3516-8.0195 4.0625-10.594 2.7188-2.582 6.457-3.875 11.219-3.875 4.332 0 7.7969 1.3086 10.391 3.9219 2.6016 2.6055 3.9062 6.0898 3.9062 10.453zm-9.0625-2.9219c0-1.6758-0.49219-3.0234-1.4688-4.0469-0.96875-1.0312-2.2422-1.5469-3.8125-1.5469-1.7109 0-3.1016 0.48047-4.1719 1.4375-1.0625 0.96094-1.7266 2.3438-1.9844 4.1562z"/>
  </symbol>
  <symbol id="h" overflow="visible">
   <path d="m16.594-12.406c-1.8438 0-3.2305 0.3125-4.1562 0.9375-0.92969 0.625-1.3906 1.543-1.3906 2.75 0 1.1172 0.375 1.9922 1.125 2.625 0.75 0.63672 1.7852 0.95312 3.1094 0.95312 1.6562 0 3.0508-0.59375 4.1875-1.7812 1.1328-1.1953 1.7031-2.6875 1.7031-4.4688v-1.0156zm13.453-3.3281v15.734h-8.875v-4.0781c-1.1875 1.668-2.5234 2.8867-4 3.6562-1.4688 0.75781-3.2617 1.1406-5.375 1.1406-2.8672 0-5.1875-0.83203-6.9688-2.5-1.7734-1.6641-2.6562-3.8281-2.6562-6.4844 0-3.2383 1.1094-5.6094 3.3281-7.1094 2.2188-1.5078 5.707-2.2656 10.469-2.2656h5.2031v-0.70312c0-1.3828-0.55469-2.3984-1.6562-3.0469-1.0938-0.65625-2.8086-0.98438-5.1406-0.98438-1.8867 0-3.6406 0.19531-5.2656 0.57812-1.625 0.375-3.1367 0.9375-4.5312 1.6875v-6.7188c1.8828-0.45703 3.7812-0.80469 5.6875-1.0469 1.9062-0.23828 3.8047-0.35938 5.7031-0.35938 4.9766 0 8.5664 0.98438 10.766 2.9531 2.207 1.9609 3.3125 5.1406 3.3125 9.5469z"/>
  </symbol>
  <symbol id="a" overflow="visible">
   <path d="m13.859-35.391v7.8281h9.0781v6.2969h-9.0781v11.688c0 1.2812 0.25 2.1523 0.75 2.6094 0.50781 0.44922 1.5195 0.67188 3.0312 0.67188h4.5312v6.2969h-7.5469c-3.4805 0-5.9492-0.72266-7.4062-2.1719-1.4492-1.457-2.1719-3.9258-2.1719-7.4062v-11.688h-4.375v-6.2969h4.375v-7.8281z"/>
  </symbol>
  <symbol id="g" overflow="visible">
   <path d="m22.984-23.531v-14.766h8.8594v38.297h-8.8594v-3.9844c-1.2109 1.625-2.5469 2.8203-4.0156 3.5781-1.4609 0.75-3.1484 1.125-5.0625 1.125-3.3984 0-6.1875-1.3477-8.375-4.0469-2.1797-2.707-3.2656-6.1875-3.2656-10.438s1.0859-7.7227 3.2656-10.422c2.1875-2.6953 4.9766-4.0469 8.375-4.0469 1.9062 0 3.5938 0.38672 5.0625 1.1562 1.4688 0.76172 2.8047 1.9453 4.0156 3.5469zm-5.8125 17.844c1.8945 0 3.3359-0.6875 4.3281-2.0625 0.98828-1.3828 1.4844-3.3906 1.4844-6.0156s-0.49609-4.625-1.4844-6c-0.99219-1.375-2.4336-2.0625-4.3281-2.0625-1.8672 0-3.2969 0.6875-4.2969 2.0625-0.99219 1.375-1.4844 3.375-1.4844 6s0.49219 4.6328 1.4844 6.0156c1 1.375 2.4297 2.0625 4.2969 2.0625z"/>
  </symbol>
  <symbol id="f" overflow="visible">
   <path d="m18.906-5.6875c1.8828 0 3.3203-0.6875 4.3125-2.0625 0.98828-1.3828 1.4844-3.3906 1.4844-6.0156s-0.49609-4.625-1.4844-6c-0.99219-1.375-2.4297-2.0625-4.3125-2.0625-1.8867 0-3.3359 0.69531-4.3438 2.0781-1.0117 1.3867-1.5156 3.3828-1.5156 5.9844 0 2.6172 0.50391 4.6172 1.5156 6 1.0078 1.3867 2.457 2.0781 4.3438 2.0781zm-5.8594-17.844c1.207-1.6016 2.5508-2.7852 4.0312-3.5469 1.4766-0.76953 3.1758-1.1562 5.0938-1.1562 3.3945 0 6.1797 1.3516 8.3594 4.0469 2.1875 2.6992 3.2812 6.1719 3.2812 10.422s-1.0938 7.7305-3.2812 10.438c-2.1797 2.6992-4.9648 4.0469-8.3594 4.0469-1.918 0-3.6172-0.38281-5.0938-1.1406-1.4805-0.76953-2.8242-1.957-4.0312-3.5625v3.9844h-8.8125v-38.297h8.8125z"/>
  </symbol>
  <symbol id="c" overflow="visible">
   <path d="m0.60938-27.562h8.8125l7.4062 18.703 6.3125-18.703h8.8125l-11.594 30.172c-1.168 3.0703-2.5273 5.2188-4.0781 6.4375-1.5547 1.2188-3.6016 1.8281-6.1406 1.8281h-5.0938v-5.7812h2.75c1.5 0 2.5859-0.24219 3.2656-0.71875 0.67578-0.46875 1.207-1.3203 1.5938-2.5469l0.23438-0.76562z"/>
  </symbol>
  <symbol id="e" overflow="visible">
   <path d="m4.625-36.75h15.734c4.6758 0 8.2656 1.043 10.766 3.125 2.5 2.0742 3.75 5.0273 3.75 8.8594 0 3.8672-1.25 6.8359-3.75 8.9062-2.5 2.0742-6.0898 3.1094-10.766 3.1094h-6.25v12.75h-9.4844zm9.4844 6.875v10.266h5.2344c1.8438 0 3.2656-0.44531 4.2656-1.3438 1-0.89453 1.5-2.1641 1.5-3.8125 0-1.6328-0.5-2.8945-1.5-3.7812-1-0.88281-2.4219-1.3281-4.2656-1.3281z"/>
  </symbol>
  <symbol id="l" overflow="visible">
   <path d="m26.5-26.703v7.1875c-1.1992-0.82031-2.4023-1.4258-3.6094-1.8125-1.1992-0.39453-2.4453-0.59375-3.7344-0.59375-2.4688 0-4.3906 0.71875-5.7656 2.1562-1.3672 1.4297-2.0469 3.4297-2.0469 6 0 2.5859 0.67969 4.5938 2.0469 6.0312 1.375 1.4297 3.2969 2.1406 5.7656 2.1406 1.375 0 2.6797-0.20312 3.9219-0.60938 1.2383-0.40625 2.3789-1.0156 3.4219-1.8281v7.2188c-1.375 0.51172-2.7734 0.89062-4.1875 1.1406-1.418 0.25781-2.8398 0.39062-4.2656 0.39062-4.9805 0-8.8711-1.2734-11.672-3.8281-2.8047-2.5508-4.2031-6.1016-4.2031-10.656 0-4.5391 1.3984-8.0859 4.2031-10.641 2.8008-2.5508 6.6914-3.8281 11.672-3.8281 1.4375 0 2.8594 0.13281 4.2656 0.39062 1.4062 0.25 2.8008 0.63281 4.1875 1.1406z"/>
  </symbol>
  <symbol id="k" overflow="visible">
   <path d="m17.359-21.922c-1.9609 0-3.4531 0.70312-4.4844 2.1094-1.0234 1.3984-1.5312 3.4141-1.5312 6.0469 0 2.6484 0.50781 4.6719 1.5312 6.0781 1.0312 1.3984 2.5234 2.0938 4.4844 2.0938 1.9141 0 3.3789-0.69531 4.3906-2.0938 1.0195-1.4062 1.5312-3.4297 1.5312-6.0781 0-2.6328-0.51172-4.6484-1.5312-6.0469-1.0117-1.4062-2.4766-2.1094-4.3906-2.1094zm0-6.3125c4.7383 0 8.4414 1.2812 11.109 3.8438 2.6641 2.5625 4 6.1055 4 10.625 0 4.5312-1.3359 8.0781-4 10.641-2.668 2.5625-6.3711 3.8438-11.109 3.8438-4.7617 0-8.4844-1.2812-11.172-3.8438-2.6797-2.5625-4.0156-6.1094-4.0156-10.641 0-4.5195 1.3359-8.0625 4.0156-10.625 2.6875-2.5625 6.4102-3.8438 11.172-3.8438z"/>
  </symbol>
  <symbol id="j" overflow="visible">
   <path d="m31.953-16.781v16.781h-8.8594v-12.844c0-2.3828-0.058594-4.0234-0.17188-4.9219-0.10547-0.90625-0.28906-1.5703-0.54688-2-0.34375-0.57031-0.8125-1.0156-1.4062-1.3281-0.59375-0.32031-1.2656-0.48438-2.0156-0.48438-1.8438 0-3.293 0.71094-4.3438 2.125-1.043 1.418-1.5625 3.3828-1.5625 5.8906v13.562h-8.8125v-27.562h8.8125v4.0312c1.3203-1.6016 2.7266-2.7852 4.2188-3.5469 1.5-0.76953 3.1484-1.1562 4.9531-1.1562 3.1875 0 5.6016 0.98047 7.25 2.9375 1.6562 1.9492 2.4844 4.7891 2.4844 8.5156z"/>
  </symbol>
  <symbol id="i" overflow="visible">
   <path d="m25.766-26.703v6.6875c-1.8867-0.78125-3.7109-1.3672-5.4688-1.7656-1.75-0.39453-3.4062-0.59375-4.9688-0.59375-1.668 0-2.9062 0.21094-3.7188 0.625-0.8125 0.41797-1.2188 1.0625-1.2188 1.9375 0 0.71094 0.30469 1.25 0.92188 1.625 0.61328 0.375 1.7188 0.65234 3.3125 0.82812l1.5469 0.23438c4.5078 0.57422 7.5391 1.5156 9.0938 2.8281 1.5625 1.3125 2.3438 3.3711 2.3438 6.1719 0 2.9375-1.0859 5.1484-3.25 6.625-2.1562 1.4805-5.3867 2.2188-9.6875 2.2188-1.8242 0-3.7109-0.14844-5.6562-0.4375-1.9375-0.28125-3.9336-0.71094-5.9844-1.2969v-6.6875c1.75 0.85547 3.5469 1.4961 5.3906 1.9219 1.8516 0.42969 3.7266 0.64062 5.625 0.64062 1.7266 0 3.0234-0.23828 3.8906-0.71875 0.875-0.47656 1.3125-1.1797 1.3125-2.1094 0-0.78906-0.30469-1.3789-0.90625-1.7656-0.59375-0.38281-1.7891-0.67969-3.5781-0.89062l-1.5469-0.20312c-3.9297-0.48828-6.6797-1.3984-8.25-2.7344-1.5742-1.332-2.3594-3.3477-2.3594-6.0469 0-2.9258 1-5.0938 3-6.5 2-1.4141 5.0664-2.125 9.2031-2.125 1.625 0 3.332 0.125 5.125 0.375 1.7891 0.25 3.7344 0.63672 5.8281 1.1562z"/>
  </symbol>
 </defs>
 <g>
  <path d="m415.69 535.97c-11 11.008-21.219 20.355-31.27 28.559 60.527-7.3086 119.13-34.055 165.48-80.406 1.0195-1.0195 1.957-2.0859 2.9648-3.1133-23.984-7.0273-51.543-12.621-81.121-16.797-15.387 25.715-34.109 49.828-56.055 71.758z"/>
  <path d="m340.22 557.71v-101.64c-30.676 0.33203-60.77 2.168-89.328 5.3633 13.609 21.461 29.699 41.715 48.27 60.285 14.684 14.695 27.852 26.258 41.059 35.996z"/>
  <path d="m384.42 4.5352c10.051 8.2148 20.273 17.562 31.27 28.57 21.938 21.938 40.668 46.051 56.039 71.746 29.578-4.1719 57.141-9.7695 81.121-16.797-0.99609-1.0273-1.9375-2.0977-2.9531-3.1133-46.352-46.352-104.95-73.098-165.48-80.406z"/>
  <path d="m340.22 435.91v-141.3h-140.88c1.5938 51.977 15.402 102.3 40.234 147.77 31.773-3.9102 65.617-6.1172 100.65-6.4688z"/>
  <path d="m340.22 274.46v-141.3c-35.031-0.35156-68.875-2.5625-100.64-6.4727-24.828 45.465-38.641 95.789-40.234 147.77z"/>
  <path d="m632.2 294.62h-110.77c-1.5234 52.855-14.992 104.05-39.184 150.67 31.293 4.7578 60.094 11.23 85.395 19.305 40.902-49.305 62.414-109.35 64.562-169.98z"/>
  <path d="m449.71 461.43c-28.559-3.207-58.641-5.0312-89.328-5.3633v101.65c13.207-9.7383 26.363-21.301 41.059-35.988 18.57-18.582 34.652-38.836 48.27-60.297z"/>
  <path d="m284.91 33.098c11.008-11.008 21.23-20.355 31.281-28.57-60.516 7.3086-119.12 34.051-165.48 80.406-1.0156 1.0156-1.9531 2.0859-2.9609 3.1133 23.984 7.0273 51.543 12.621 81.121 16.797 15.383-25.699 34.102-49.812 56.039-71.746z"/>
  <path d="m68.406 274.46h110.77c1.5234-52.855 14.992-104.05 39.184-150.67-31.293-4.7578-60.094-11.23-85.395-19.297-40.906 49.297-62.41 109.33-64.559 169.97z"/>
  <path d="m284.91 535.97c-21.938-21.938-40.656-46.051-56.039-71.746-29.578 4.1719-57.141 9.7695-81.121 16.797 0.99609 1.0273 1.9453 2.0977 2.9648 3.1133 22.289 22.289 47.441 39.98 74.246 53.238 28.934 14.316 59.812 23.367 91.234 27.16-10.055-8.2109-20.277-17.555-31.285-28.562z"/>
  <path d="m179.18 294.62h-110.77c2.1484 60.629 23.66 120.67 64.559 169.98 25.293-8.0742 54.094-14.547 85.395-19.305-24.191-46.617-37.66-97.816-39.184-150.67z"/>
  <path d="m340.22 113.01v-101.64c-13.207 9.7266-26.363 21.293-41.059 35.988-18.57 18.57-34.66 38.82-48.27 60.285 28.547 3.1953 58.641 5.0312 89.328 5.3633z"/>
  <path d="m521.43 274.46h110.77c-2.1484-60.629-23.66-120.67-64.559-169.98-25.293 8.0742-54.094 14.547-85.395 19.297 24.184 46.621 37.652 97.824 39.184 150.68z"/>
  <path d="m360.38 133.16v141.3h140.88c-1.5938-51.977-15.402-102.3-40.234-147.77-31.773 3.9062-65.617 6.1055-100.65 6.4688z"/>
  <path d="m360.38 294.62v141.3c35.031 0.35156 68.883 2.5625 100.65 6.4727 24.828-45.465 38.641-95.781 40.234-147.77z"/>
  <path d="m401.43 47.352c-14.699-14.699-27.855-26.25-41.059-35.988v101.64c30.688-0.33203 60.77-2.168 89.328-5.3633-13.602-21.465-29.691-41.707-48.27-60.285z"/>
  <use x="68.105469" y="711.214844" xlink:href="#m"/>
  <use x="105.097656" y="711.214844" xlink:href="#d"/>
  <use x="129.953125" y="711.214844" xlink:href="#b"/>
  <use x="164.140625" y="711.214844" xlink:href="#h"/>
  <use x="198.152344" y="711.214844" xlink:href="#a"/>
  <use x="222.25" y="711.214844" xlink:href="#b"/>
  <use x="256.433594" y="711.214844" xlink:href="#g"/>
  <use x="310.0625" y="711.214844" xlink:href="#f"/>
  <use x="346.144531" y="711.214844" xlink:href="#c"/>
  <use x="396.550781" y="711.214844" xlink:href="#e"/>
  <use x="433.492188" y="711.214844" xlink:href="#d"/>
  <use x="458.351562" y="711.214844" xlink:href="#b"/>
  <use x="492.535156" y="711.214844" xlink:href="#a"/>
  <use x="516.632812" y="711.214844" xlink:href="#a"/>
  <use x="540.726562" y="711.214844" xlink:href="#c"/>
  <use x="573.582031" y="711.214844" xlink:href="#l"/>
  <use x="603.460938" y="711.214844" xlink:href="#k"/>
  <use x="638.089844" y="711.214844" xlink:href="#j"/>
  <use x="673.972656" y="711.214844" xlink:href="#i"/>
 </g>
</svg>
